<?xml version="1.0" encoding="UTF-8" standalone="no"?>
<!-- Generator: Adobe Illustrator 22.1.0, SVG Export Plug-In . SVG Version: 6.00 Build 0)  -->

<svg
   xmlns:dc="http://purl.org/dc/elements/1.1/"
   xmlns:cc="http://creativecommons.org/ns#"
   xmlns:rdf="http://www.w3.org/1999/02/22-rdf-syntax-ns#"
   xmlns:svg="http://www.w3.org/2000/svg"
   xmlns="http://www.w3.org/2000/svg"
   xmlns:sodipodi="http://sodipodi.sourceforge.net/DTD/sodipodi-0.dtd"
   xmlns:inkscape="http://www.inkscape.org/namespaces/inkscape"
   version="1.2"
   id="Layer_1"
   x="0px"
   y="0px"
   viewBox="0 0 25.000001 25"
   xml:space="preserve"
   sodipodi:docname="footer-address.svg"
   width="25"
   height="25"
   inkscape:version="0.92.1 r15371"><metadata
     id="metadata23"><rdf:RDF><cc:Work
         rdf:about=""><dc:format>image/svg+xml</dc:format><dc:type
           rdf:resource="http://purl.org/dc/dcmitype/StillImage" /><dc:title></dc:title></cc:Work></rdf:RDF></metadata><defs
     id="defs21" /><sodipodi:namedview
     pagecolor="#ffffff"
     bordercolor="#666666"
     borderopacity="1"
     objecttolerance="10"
     gridtolerance="10"
     guidetolerance="10"
     inkscape:pageopacity="0"
     inkscape:pageshadow="2"
     inkscape:window-width="1920"
     inkscape:window-height="1017"
     id="namedview19"
     showgrid="false"
     fit-margin-top="0"
     fit-margin-left="0"
     fit-margin-right="0"
     fit-margin-bottom="0"
     inkscape:zoom="26.700352"
     inkscape:cx="17.428506"
     inkscape:cy="9.0001689"
     inkscape:window-x="-8"
     inkscape:window-y="-8"
     inkscape:window-maximized="1"
     inkscape:current-layer="Layer_1" /><g
     id="g4508"
     transform="translate(0.22586741,0.20192061)"><g
       id="g10"><path
         id="path2"
         d="m 17.613,9.597 c 0.082,0.196 -0.008,0.422 -0.203,0.504 -0.191,0.082 -0.418,-0.008 -0.5,-0.203 C 16.805,9.652 16.672,9.41 16.523,9.187 16.371,8.96 16.195,8.75 16.004,8.558 V 8.562 C 15.812,8.367 15.602,8.195 15.379,8.043 15.152,7.89 14.914,7.761 14.668,7.656 14.477,7.574 14.383,7.351 14.465,7.156 c 0.082,-0.196 0.308,-0.285 0.5,-0.203 0.301,0.125 0.582,0.277 0.844,0.453 0.265,0.183 0.515,0.387 0.738,0.613 0.226,0.227 0.433,0.477 0.613,0.738 0.176,0.262 0.328,0.543 0.453,0.84 z m 0,0"
         inkscape:connector-curvature="0"
         style="fill:#050008;fill-rule:evenodd" /><path
         id="path4"
         d="m 20.055,9.648 c 0.054,0.207 -0.067,0.418 -0.274,0.473 C 19.578,10.175 19.367,10.05 19.312,9.847 19.164,9.3 18.945,8.773 18.66,8.289 18.379,7.8 18.031,7.347 17.625,6.941 17.219,6.535 16.766,6.187 16.277,5.902 15.793,5.621 15.266,5.402 14.719,5.253 14.512,5.199 14.391,4.988 14.445,4.785 14.5,4.578 14.711,4.457 14.914,4.511 c 0.613,0.168 1.203,0.414 1.746,0.731 0.551,0.316 1.059,0.707 1.508,1.156 0.449,0.449 0.84,0.957 1.156,1.508 0.317,0.543 0.563,1.133 0.731,1.742 z m 0,0"
         inkscape:connector-curvature="0"
         style="fill:#050008;fill-rule:evenodd" /><path
         id="path6"
         d="m 22.734,21.753 c 0.172,0.125 0.207,0.368 0.082,0.536 -0.125,0.171 -0.363,0.207 -0.535,0.086 l -1.562,-1.149 -3.125,-2.289 c -0.172,-0.125 -0.211,-0.363 -0.086,-0.535 0.125,-0.172 0.367,-0.207 0.535,-0.082 l 1.566,1.144 z m 0,0"
         inkscape:connector-curvature="0"
         style="fill:#050008;fill-rule:evenodd" /><path
         id="path8"
         d="M 2.184,2.277 C 2.059,2.105 2.098,1.867 2.266,1.742 2.438,1.617 2.676,1.652 2.801,1.824 L 3.945,3.386 5.094,4.949 6.238,6.511 C 6.363,6.683 6.328,6.921 6.156,7.046 5.984,7.171 5.746,7.136 5.621,6.964 L 3.332,3.839 Z m 0,0"
         inkscape:connector-curvature="0"
         style="fill:#050008;fill-rule:evenodd" /></g><g
       id="g16"><path
         id="path12"
         d="m 17.168,3.773 c 0.758,0.406 1.457,0.93 2.078,1.547 0.613,0.613 1.129,1.308 1.535,2.058 l 0.012,0.02 c 0.406,0.758 0.699,1.574 0.867,2.422 0.039,0.211 0.242,0.344 0.449,0.305 0.207,-0.04 0.344,-0.243 0.305,-0.45 C 22.23,8.75 21.91,7.863 21.465,7.035 L 21.453,7.015 C 21.012,6.195 20.449,5.441 19.789,4.777 H 19.785 C 19.117,4.109 18.355,3.543 17.527,3.097 16.699,2.656 15.812,2.335 14.891,2.152 14.684,2.113 14.48,2.246 14.441,2.457 c -0.043,0.207 0.094,0.406 0.301,0.449 0.852,0.168 1.668,0.465 2.426,0.867 z"
         inkscape:connector-curvature="0"
         style="fill:#050008" /><path
         id="path14"
         d="m 18.152,15.503 c -0.156,-0.113 -0.367,-0.093 -0.496,0.04 h -0.004 l -1.238,1.238 c -1.176,1.176 -3.035,0.84 -4.781,-0.223 C 10.926,16.128 10.234,15.574 9.609,14.953 8.988,14.328 8.434,13.636 8.004,12.929 6.938,11.183 6.598,9.324 7.766,8.156 l 1.25,-1.25 C 9.16,6.761 9.164,6.535 9.035,6.382 L 4.473,0.156 C 4.348,-0.016 4.105,-0.051 3.938,0.074 3.922,0.085 3.906,0.097 3.895,0.109 L 1.715,2.273 1.699,2.289 C 0.02,3.964 -0.43,6.164 0.414,8.816 1.23,11.375 3.27,14.359 6.59,17.703 l 0.133,0.132 c 0.144,0.149 0.328,0.329 0.55,0.543 3.227,3.129 6.122,5.055 8.606,5.817 2.574,0.785 4.715,0.344 6.34,-1.281 l 0.019,-0.024 0.051,-0.047 v -0.004 l 0.492,-0.507 c 0.149,-0.153 0.145,-0.395 -0.008,-0.543 -0.148,-0.145 -0.394,-0.145 -0.539,0.007 l -0.496,0.508 -0.043,0.047 -0.019,0.02 C 20.262,23.781 18.383,24.16 16.102,23.46 13.734,22.738 10.945,20.875 7.809,17.832 7.668,17.695 7.484,17.515 7.266,17.293 H 7.262 L 7.133,17.164 C 3.902,13.906 1.922,11.027 1.145,8.582 0.395,6.23 0.777,4.293 2.242,2.832 L 2.258,2.816 4.117,0.964 8.242,6.593 7.223,7.613 c -1.469,1.465 -1.114,3.676 0.125,5.715 0.464,0.765 1.058,1.504 1.718,2.164 0.661,0.664 1.403,1.254 2.164,1.718 2.04,1.239 4.25,1.59 5.727,0.114 l 1.008,-1.008 5.984,4.387 c 0.172,0.125 0.41,0.09 0.535,-0.082 0.125,-0.172 0.09,-0.411 -0.082,-0.536 z"
         inkscape:connector-curvature="0"
         style="fill:#050008" /></g></g></svg>