<?xml version="1.0" encoding="UTF-8" standalone="no"?>
<!-- Generator: Adobe Illustrator 22.1.0, SVG Export Plug-In . SVG Version: 6.00 Build 0)  -->

<svg
   xmlns:dc="http://purl.org/dc/elements/1.1/"
   xmlns:cc="http://creativecommons.org/ns#"
   xmlns:rdf="http://www.w3.org/1999/02/22-rdf-syntax-ns#"
   xmlns:svg="http://www.w3.org/2000/svg"
   xmlns="http://www.w3.org/2000/svg"
   xmlns:sodipodi="http://sodipodi.sourceforge.net/DTD/sodipodi-0.dtd"
   xmlns:inkscape="http://www.inkscape.org/namespaces/inkscape"
   version="1.1"
   id="Capa_1"
   x="0px"
   y="0px"
   viewBox="-49 217.942 100 100"
   xml:space="preserve"
   sodipodi:docname="payment-master-card.svg"
   width="100"
   height="100"
   inkscape:version="0.92.1 r15371"><metadata
     id="metadata17"><rdf:RDF><cc:Work
         rdf:about=""><dc:format>image/svg+xml</dc:format><dc:type
           rdf:resource="http://purl.org/dc/dcmitype/StillImage" /><dc:title></dc:title></cc:Work></rdf:RDF></metadata><defs
     id="defs15" /><sodipodi:namedview
     pagecolor="#ffffff"
     bordercolor="#666666"
     borderopacity="1"
     objecttolerance="10"
     gridtolerance="10"
     guidetolerance="10"
     inkscape:pageopacity="0"
     inkscape:pageshadow="2"
     inkscape:window-width="1920"
     inkscape:window-height="1017"
     id="namedview13"
     showgrid="false"
     fit-margin-top="0"
     fit-margin-left="0"
     fit-margin-right="0"
     fit-margin-bottom="0"
     inkscape:zoom="8.96875"
     inkscape:cx="70.912884"
     inkscape:cy="60.052931"
     inkscape:window-x="-8"
     inkscape:window-y="-8"
     inkscape:window-maximized="1"
     inkscape:current-layer="Capa_1" /><g
     id="g4500"
     transform="translate(0,-14)"><path
       style="stroke-width:0.1953125"
       inkscape:connector-curvature="0"
       id="path2"
       d="m 49.421094,259.02442 c 0.872265,0 1.578906,-0.70703 1.578906,-1.5789 v -2.14434 c 0,-4.02715 -3.276367,-7.30352 -7.30332,-7.30352 h -85.39336 c -4.026953,0 -7.30332,3.27657 -7.30332,7.30352 v 55.33711 c 0,4.02734 3.276367,7.30371 7.30332,7.30371 h 85.392969 c 4.027149,0 7.30332,-3.27656 7.30332,-7.30371 v -48.06953 c 0,-0.87207 -0.706836,-1.57891 -1.578906,-1.57891 h -95.262891 v -5.68847 c 0,-2.28594 1.859766,-4.14571 4.145508,-4.14571 h 85.392969 c 2.285742,0 4.145508,1.85977 4.145508,4.14571 v 2.14433 c 3.9e-4,0.87207 0.707031,1.57871 1.579297,1.57871 z m -95.263282,18.74473 h 93.68418 v 5.26992 h -93.68418 z m 89.538868,37.01484 h -85.39336 c -2.285742,0 -4.145508,-1.85976 -4.145508,-4.1459 v -24.4414 h 93.68418 v 24.4414 h 1.95e-4 c 0,2.28614 -1.859765,4.1459 -4.145507,4.1459 z m 4.145507,-50.63633 v 10.46348 h -93.684375 v -10.46348 z" /><path
       style="stroke-width:0.1953125"
       inkscape:connector-curvature="0"
       id="path4"
       d="m 32.552734,289.7754 c -2.019921,0 -4.002148,0.58379 -5.69707,1.6584 -1.694726,-1.07461 -3.676758,-1.6584 -5.69707,-1.6584 -5.862305,0 -10.631641,4.76933 -10.631641,10.63183 0,5.8625 4.769336,10.63184 10.631641,10.63184 2.019922,0 4.002148,-0.58359 5.69707,-1.6584 1.694727,1.07461 3.677149,1.6584 5.69707,1.6584 5.8625,0 10.632032,-4.76934 10.632032,-10.63184 0,-5.8625 -4.769532,-10.63183 -10.632032,-10.63183 z m -10.616796,11.17793 c 0.0027,0.0555 0.0072,0.11035 0.01074,0.16562 0.0086,0.1291 0.01914,0.25762 0.03242,0.38594 0.0061,0.0592 0.0123,0.11816 0.01914,0.17695 0.01641,0.13828 0.03594,0.27579 0.05781,0.41289 0.0064,0.0412 0.01172,0.0828 0.01894,0.12403 0.03008,0.17578 0.06465,0.35039 0.10332,0.52383 0.0096,0.0422 0.0207,0.0836 0.03047,0.12558 0.03145,0.13281 0.06504,0.26485 0.101563,0.3961 0.01582,0.057 0.03242,0.11347 0.04902,0.17011 0.03594,0.12168 0.07422,0.24258 0.114648,0.3627 0.01719,0.0512 0.03359,0.10254 0.05156,0.15332 0.05898,0.16699 0.120703,0.33281 0.187695,0.49648 0.0025,0.006 0.0055,0.0125 0.008,0.0186 0.06484,0.15742 0.13457,0.31289 0.207031,0.46699 0.02344,0.0498 0.04824,0.0992 0.07246,0.14863 0.05527,0.11289 0.1125,0.22481 0.171875,0.33594 0.02754,0.0516 0.05508,0.10313 0.08379,0.1543 0.06738,0.12109 0.137305,0.24043 0.209571,0.35898 0.0209,0.0342 0.04023,0.0686 0.06152,0.10254 0.09375,0.14981 0.191211,0.29727 0.292383,0.44258 0.02539,0.0367 0.05254,0.0723 0.07852,0.10859 0.07832,0.10957 0.158594,0.21797 0.241211,0.32461 0.03633,0.0471 0.07363,0.0937 0.110938,0.14024 0.03262,0.0408 0.06387,0.0826 0.09727,0.12265 -0.986133,0.46778 -2.065235,0.71016 -3.189258,0.71016 -4.121094,0 -7.473633,-3.35293 -7.473633,-7.47383 0,-4.12148 3.352734,-7.47422 7.473828,-7.47422 1.124023,0 2.203125,0.24238 3.189453,0.71016 -0.0332,0.0402 -0.06426,0.0816 -0.09688,0.12226 -0.0375,0.0467 -0.075,0.0937 -0.111523,0.14102 -0.08262,0.10625 -0.162305,0.21426 -0.240625,0.32363 -0.02617,0.0367 -0.05352,0.0725 -0.0791,0.10938 -0.100976,0.14531 -0.198828,0.29257 -0.292187,0.44257 -0.02109,0.034 -0.04063,0.0684 -0.06152,0.10254 -0.07226,0.11836 -0.142187,0.23789 -0.20957,0.35899 -0.02852,0.0512 -0.05606,0.10273 -0.08379,0.1543 -0.05937,0.11093 -0.116602,0.22285 -0.171875,0.33593 -0.02422,0.0494 -0.04883,0.0984 -0.07246,0.14844 -0.07266,0.1543 -0.142383,0.31016 -0.207422,0.46777 -0.0025,0.006 -0.0053,0.0117 -0.0078,0.0178 -0.06719,0.16367 -0.129102,0.32949 -0.187696,0.49668 -0.01797,0.0508 -0.03437,0.10195 -0.05156,0.15312 -0.04043,0.12051 -0.07871,0.24121 -0.114844,0.36309 -0.0166,0.0566 -0.0332,0.11308 -0.04902,0.16992 -0.03652,0.13145 -0.07012,0.26367 -0.101563,0.39668 -0.01,0.0416 -0.02109,0.0832 -0.03027,0.125 -0.03867,0.17344 -0.07344,0.34824 -0.103516,0.52402 -0.007,0.041 -0.0125,0.0826 -0.01894,0.12364 -0.02188,0.1371 -0.04141,0.2748 -0.05781,0.41328 -0.007,0.0588 -0.01328,0.11797 -0.01914,0.17675 -0.01309,0.12813 -0.02383,0.25684 -0.03242,0.38614 -0.0035,0.0551 -0.008,0.11035 -0.01074,0.16562 -0.0092,0.18125 -0.01524,0.36289 -0.01524,0.54551 0,0.18262 0.0061,0.36445 0.01524,0.54551 z m 6.685156,-0.16016 c -0.0021,0.0399 -0.0053,0.0795 -0.008,0.11934 -0.0061,0.0897 -0.01328,0.1791 -0.02246,0.26816 -0.0045,0.0436 -0.0092,0.0871 -0.01445,0.13067 -0.01094,0.0908 -0.02383,0.18105 -0.03809,0.27109 -0.0057,0.0365 -0.01074,0.073 -0.01699,0.10918 -0.02149,0.12461 -0.0457,0.24863 -0.07344,0.37168 -0.0033,0.0145 -0.0074,0.0287 -0.01074,0.0432 -0.0252,0.1086 -0.05293,0.21621 -0.08281,0.32344 -0.01094,0.0389 -0.02266,0.0775 -0.03438,0.11602 -0.025,0.084 -0.05137,0.16757 -0.0791,0.25058 -0.01367,0.0404 -0.02734,0.0809 -0.0416,0.1211 -0.03125,0.0873 -0.06426,0.17402 -0.09844,0.26015 -0.0125,0.0312 -0.02402,0.0625 -0.03691,0.0936 -0.04785,0.11562 -0.09824,0.22988 -0.151953,0.34277 -0.01035,0.0217 -0.02168,0.0428 -0.03203,0.0643 -0.04434,0.0912 -0.09063,0.18164 -0.138672,0.2709 -0.01992,0.0371 -0.04062,0.0734 -0.06133,0.11015 -0.04199,0.075 -0.08535,0.14903 -0.129882,0.22246 -0.02246,0.0371 -0.04492,0.0738 -0.06797,0.11055 -0.05039,0.0799 -0.102734,0.15859 -0.15625,0.23633 -0.01797,0.0264 -0.03516,0.0531 -0.05352,0.0791 -0.07187,0.10176 -0.146093,0.20176 -0.222851,0.2998 -0.02051,0.0262 -0.04238,0.0516 -0.06309,0.0775 -0.04258,0.0531 -0.08652,0.10508 -0.130664,0.15684 -0.0457,-0.0537 -0.09141,-0.10762 -0.135547,-0.1625 -0.01894,-0.0236 -0.03867,-0.0465 -0.05723,-0.0703 -0.07773,-0.0992 -0.152539,-0.2 -0.224804,-0.30254 -0.01699,-0.0242 -0.03301,-0.049 -0.0498,-0.0734 -0.05469,-0.0799 -0.108399,-0.16035 -0.159961,-0.24219 -0.02246,-0.0355 -0.04434,-0.0719 -0.06641,-0.10781 -0.04531,-0.0742 -0.08906,-0.14941 -0.131641,-0.22539 -0.02031,-0.0359 -0.04062,-0.0721 -0.06016,-0.1084 -0.04844,-0.0898 -0.09473,-0.18066 -0.139453,-0.27246 -0.01035,-0.0213 -0.02149,-0.0422 -0.03164,-0.0633 -0.05371,-0.11309 -0.104297,-0.22734 -0.152148,-0.34297 -0.01289,-0.0309 -0.02441,-0.0623 -0.03691,-0.0934 -0.03438,-0.0863 -0.06758,-0.17305 -0.09863,-0.26055 -0.01426,-0.04 -0.02793,-0.0805 -0.04141,-0.12089 -0.02793,-0.083 -0.0543,-0.16661 -0.0791,-0.25059 -0.01152,-0.0387 -0.02363,-0.0775 -0.03438,-0.11641 -0.02988,-0.10683 -0.05742,-0.21406 -0.08262,-0.32226 -0.0033,-0.0146 -0.0076,-0.0293 -0.01094,-0.0439 -0.02773,-0.12265 -0.05176,-0.24668 -0.07344,-0.37129 -0.0062,-0.0363 -0.01133,-0.073 -0.01699,-0.10976 -0.01406,-0.0898 -0.02695,-0.18028 -0.03789,-0.2707 -0.0053,-0.0436 -0.01016,-0.0871 -0.01445,-0.13067 -0.0092,-0.0891 -0.01641,-0.17851 -0.02246,-0.26816 -0.0027,-0.0399 -0.0059,-0.0793 -0.008,-0.11934 -0.0064,-0.12793 -0.01074,-0.25644 -0.01074,-0.38555 0,-0.1291 0.0041,-0.2582 0.01055,-0.38613 0.0021,-0.04 0.0053,-0.0795 0.008,-0.11933 0.0061,-0.0897 0.01328,-0.17891 0.02246,-0.26797 0.0045,-0.0437 0.0092,-0.0873 0.01445,-0.13086 0.01094,-0.0906 0.02383,-0.18086 0.03789,-0.27051 0.0057,-0.0367 0.01074,-0.0732 0.01699,-0.10977 0.02148,-0.12461 0.0457,-0.24843 0.07344,-0.37129 0.0033,-0.0146 0.0076,-0.0293 0.01094,-0.0439 0.025,-0.1082 0.05254,-0.21563 0.08262,-0.32207 0.01094,-0.0393 0.02285,-0.0779 0.03457,-0.1168 0.025,-0.0838 0.05137,-0.16738 0.0791,-0.25019 0.01348,-0.0404 0.02734,-0.0809 0.04141,-0.1209 0.03125,-0.0875 0.06426,-0.17442 0.09844,-0.26035 0.0125,-0.0312 0.02402,-0.0625 0.03691,-0.0932 0.04785,-0.11562 0.09824,-0.22988 0.151954,-0.34297 0.01016,-0.0215 0.02148,-0.0424 0.03183,-0.0639 0.04473,-0.0916 0.09082,-0.18223 0.139063,-0.27207 0.01953,-0.0363 0.04023,-0.0725 0.06035,-0.1086 0.04258,-0.0758 0.08633,-0.15078 0.131445,-0.225 0.02188,-0.0361 0.04375,-0.0725 0.0666,-0.1082 0.05156,-0.0816 0.104883,-0.16211 0.159766,-0.2416 0.0168,-0.0244 0.03281,-0.0494 0.0498,-0.0736 0.07227,-0.10254 0.147461,-0.20332 0.224804,-0.30254 0.01875,-0.0238 0.03828,-0.0467 0.05723,-0.0703 0.04395,-0.0549 0.08965,-0.10879 0.135547,-0.1625 0.04434,0.0521 0.08867,0.10469 0.13164,0.15782 0.0207,0.0254 0.0418,0.0506 0.06211,0.0762 0.07695,0.0982 0.151562,0.19844 0.223437,0.30019 0.01816,0.026 0.03516,0.0521 0.05313,0.0783 0.05371,0.0783 0.10625,0.15723 0.156836,0.23731 0.02285,0.0363 0.04531,0.073 0.06758,0.10996 0.04492,0.0736 0.08828,0.14824 0.130274,0.22344 0.02051,0.0365 0.04101,0.0729 0.06113,0.10976 0.04824,0.0895 0.09434,0.18008 0.138672,0.27129 0.01055,0.0215 0.02168,0.0426 0.03203,0.0641 0.05371,0.11289 0.104297,0.22735 0.151953,0.34297 0.01289,0.0307 0.02422,0.0621 0.03672,0.093 0.03438,0.0863 0.06758,0.17305 0.09863,0.26055 0.01426,0.04 0.02793,0.0805 0.04141,0.1209 0.02793,0.083 0.0543,0.1666 0.0793,0.25078 0.01152,0.0387 0.02344,0.0773 0.03438,0.11601 0.02988,0.10723 0.05762,0.21524 0.08301,0.32383 0.0033,0.0143 0.0074,0.0285 0.01055,0.0428 0.02773,0.12304 0.05176,0.24687 0.07344,0.37187 0.0062,0.0361 0.01133,0.0729 0.01699,0.10898 0.01406,0.09 0.02715,0.18047 0.03809,0.2711 0.0053,0.0434 0.01016,0.0869 0.01445,0.13066 0.0092,0.0891 0.01641,0.17852 0.02246,0.26817 0.0027,0.0398 0.0059,0.0793 0.008,0.11933 0.0064,0.12793 0.01074,0.25645 0.01074,0.38555 0,0.1291 -0.0043,0.25801 -0.01074,0.38574 z m 3.93125,7.08809 c -1.124024,0 -2.203125,-0.24239 -3.189258,-0.71016 0.03418,-0.0412 0.06582,-0.084 0.09941,-0.12558 0.03574,-0.0447 0.07129,-0.0893 0.10625,-0.13438 0.08555,-0.11016 0.168359,-0.22187 0.249219,-0.33516 0.02363,-0.0328 0.04805,-0.0652 0.07109,-0.0982 0.10254,-0.14687 0.201172,-0.29629 0.296094,-0.44804 0.01836,-0.0293 0.03516,-0.0592 0.05313,-0.0885 0.07539,-0.12363 0.148438,-0.24844 0.21875,-0.37481 0.02656,-0.0476 0.05215,-0.0955 0.07793,-0.14355 0.06191,-0.11563 0.121484,-0.23223 0.179101,-0.3502 0.02227,-0.0455 0.04512,-0.0908 0.0666,-0.13671 0.151758,-0.32227 0.287305,-0.65235 0.405859,-0.98907 0.0168,-0.0478 0.03223,-0.0961 0.04844,-0.14414 0.04141,-0.12363 0.08106,-0.24804 0.118164,-0.37324 0.01602,-0.0541 0.03184,-0.1082 0.04687,-0.1627 0.0373,-0.13418 0.07148,-0.26933 0.103711,-0.40527 0.0092,-0.0397 0.01973,-0.0787 0.02871,-0.11855 0.03887,-0.17442 0.07363,-0.34981 0.103906,-0.52657 0.0066,-0.0396 0.01172,-0.0793 0.01816,-0.11894 0.02207,-0.13848 0.04199,-0.27754 0.05859,-0.41719 0.007,-0.0586 0.01309,-0.11699 0.01914,-0.17578 0.01328,-0.12871 0.02383,-0.25762 0.03242,-0.38711 0.0035,-0.0551 0.008,-0.10996 0.01074,-0.16523 0.0092,-0.18125 0.01523,-0.36289 0.01523,-0.54571 1.95e-4,-0.18261 -0.0061,-0.36425 -0.01504,-0.5455 -0.0027,-0.0551 -0.0072,-0.11016 -0.01074,-0.16524 -0.0086,-0.12949 -0.01914,-0.25859 -0.03242,-0.38691 -0.0061,-0.0588 -0.01191,-0.11719 -0.01914,-0.17578 -0.0166,-0.13985 -0.03633,-0.27872 -0.05859,-0.41719 -0.0062,-0.0396 -0.01133,-0.0795 -0.01816,-0.11914 -0.03027,-0.17657 -0.06504,-0.35215 -0.103906,-0.52657 -0.0088,-0.0398 -0.01934,-0.0789 -0.02891,-0.11875 -0.03203,-0.13574 -0.06641,-0.2707 -0.103516,-0.40488 -0.01523,-0.0545 -0.03105,-0.10859 -0.04687,-0.16289 -0.03711,-0.12519 -0.07637,-0.24941 -0.117968,-0.37305 -0.01621,-0.048 -0.03164,-0.0965 -0.04844,-0.14414 -0.118555,-0.33671 -0.254102,-0.6666 -0.405859,-0.98886 -0.02168,-0.0459 -0.04434,-0.0914 -0.0668,-0.13711 -0.05742,-0.11778 -0.116992,-0.23438 -0.178906,-0.34981 -0.02559,-0.048 -0.05137,-0.0961 -0.07793,-0.14355 -0.07012,-0.12637 -0.143164,-0.25117 -0.21875,-0.37481 -0.01797,-0.0295 -0.03477,-0.0594 -0.05313,-0.0885 -0.09473,-0.15157 -0.19336,-0.30078 -0.295703,-0.44785 -0.02324,-0.0332 -0.04805,-0.0658 -0.07168,-0.099 -0.08066,-0.11289 -0.163281,-0.22461 -0.248633,-0.33457 -0.03516,-0.0453 -0.0707,-0.09 -0.106445,-0.13476 -0.0332,-0.0416 -0.06523,-0.0842 -0.09922,-0.12539 0.986328,-0.46778 2.06543,-0.71016 3.189258,-0.71016 4.121289,0 7.474023,3.35293 7.474023,7.47383 -5.86e-4,4.12246 -3.353515,7.47539 -7.474804,7.47539 z" /><path
       style="stroke-width:0.1953125"
       inkscape:connector-curvature="0"
       id="path6"
       d="m -17.145898,292.43223 h -19.789454 c -0.872265,0 -1.578906,0.70664 -1.578906,1.57891 0,0.87227 0.706641,1.57891 1.578906,1.57891 h 19.789454 c 0.872265,0 1.578906,-0.70664 1.578906,-1.57891 0,-0.87227 -0.707031,-1.57891 -1.578906,-1.57891 z" /><path
       style="stroke-width:0.1953125"
       inkscape:connector-curvature="0"
       id="path8"
       d="m -17.145898,298.99552 h -19.789454 c -0.872265,0 -1.578906,0.70664 -1.578906,1.5789 0,0.87207 0.706641,1.57891 1.578906,1.57891 h 19.789454 c 0.872265,0 1.578906,-0.70684 1.578906,-1.57891 0,-0.87226 -0.707031,-1.5789 -1.578906,-1.5789 z" /><path
       style="stroke-width:0.1953125"
       inkscape:connector-curvature="0"
       id="path10"
       d="m -17.145898,305.5586 h -19.789454 c -0.872265,0 -1.578906,0.70664 -1.578906,1.57891 0,0.87226 0.706641,1.5789 1.578906,1.5789 h 19.789454 c 0.872265,0 1.578906,-0.70664 1.578906,-1.5789 0,-0.87227 -0.707031,-1.57891 -1.578906,-1.57891 z" /></g></svg>