<?xml version="1.0" standalone="no"?>
<!DOCTYPE svg PUBLIC "-//W3C//DTD SVG 20010904//EN"
 "http://www.w3.org/TR/2001/REC-SVG-20010904/DTD/svg10.dtd">
<svg version="1.0" xmlns="http://www.w3.org/2000/svg"
 width="500.000000pt" height="500.000000pt" viewBox="0 0 500.000000 500.000000"
 preserveAspectRatio="xMidYMid meet">
<metadata>
Created by potrace 1.11, written by Peter Selinger 2001-2013
</metadata>
<g transform="translate(0.000000,500.000000) scale(0.100000,-0.100000)"
fill="#000000" stroke="none">
<path d="M2250 4988 c-489 -49 -973 -253 -1355 -571 -94 -78 -283 -274 -357
-368 -222 -286 -389 -630 -472 -978 -14 -57 -28 -129 -32 -160 -3 -31 -8 -59
-10 -62 -25 -42 -24 -625 1 -701 2 -7 6 -32 9 -55 3 -22 7 -52 10 -65 111
-523 329 -930 691 -1293 413 -414 937 -663 1525 -724 83 -8 465 -7 505 2 11 2
47 8 80 12 63 7 72 9 150 25 28 6 60 12 72 14 54 11 188 52 298 91 408 148
806 433 1080 775 137 170 286 422 369 620 57 138 136 417 152 540 2 19 7 46 9
60 34 176 24 597 -20 825 -14 77 -68 281 -76 290 -5 5 -9 16 -9 25 0 25 -85
232 -137 334 -85 166 -202 344 -323 491 -73 89 -299 301 -404 379 -158 118
-241 168 -411 251 -244 119 -508 201 -745 230 -30 4 -64 9 -75 12 -38 9 -441
10 -525 1z m1353 -798 c3 -3 8 -40 12 -82 3 -43 8 -90 10 -105 2 -16 6 -62 9
-103 4 -41 9 -91 11 -110 3 -19 7 -66 10 -105 3 -38 7 -86 10 -105 4 -33 16
-171 19 -215 1 -17 -5 -20 -58 -20 l-58 0 -19 75 c-103 410 -262 599 -532 635
-23 3 -58 8 -77 11 -19 3 -216 8 -437 11 l-403 5 0 -716 c0 -675 1 -716 18
-717 69 -4 489 2 537 7 76 8 167 36 209 64 76 53 102 140 107 357 l2 82 58 0
59 -1 0 -584 0 -584 -60 0 -60 0 -1 73 c-1 151 -17 254 -50 318 -26 53 -92
106 -147 118 -95 22 -122 23 -395 26 l-279 2 5 -611 c3 -336 8 -627 11 -646 3
-19 8 -55 11 -80 20 -155 42 -196 128 -238 87 -44 205 -57 479 -56 245 1 336
8 447 36 149 36 237 86 337 190 82 86 163 192 160 209 -1 4 6 15 15 25 37 42
145 313 163 409 16 81 16 81 91 80 47 0 50 -2 49 -25 -1 -14 -5 -77 -9 -140
-3 -63 -8 -135 -10 -160 -3 -25 -7 -83 -10 -130 -5 -81 -12 -185 -20 -295 -2
-27 -7 -99 -11 -159 -3 -60 -8 -117 -9 -125 -2 -9 -4 -19 -4 -23 -1 -5 -637
-8 -1414 -8 l-1414 0 1 57 1 57 85 2 c201 6 273 27 334 95 53 59 75 124 84
249 10 132 9 2403 -1 2520 -20 243 -80 301 -322 316 -55 3 -102 7 -105 9 -5 3
-6 108 -1 111 7 3 2431 -2 2434 -6z"/>
</g>
</svg>
