<?xml version="1.0" encoding="UTF-8" standalone="no"?>
<!-- Generator: Adobe Illustrator 22.1.0, SVG Export Plug-In . SVG Version: 6.00 Build 0)  -->

<svg
   xmlns:dc="http://purl.org/dc/elements/1.1/"
   xmlns:cc="http://creativecommons.org/ns#"
   xmlns:rdf="http://www.w3.org/1999/02/22-rdf-syntax-ns#"
   xmlns:svg="http://www.w3.org/2000/svg"
   xmlns="http://www.w3.org/2000/svg"
   xmlns:sodipodi="http://sodipodi.sourceforge.net/DTD/sodipodi-0.dtd"
   xmlns:inkscape="http://www.inkscape.org/namespaces/inkscape"
   version="1.2"
   id="Layer_1"
   x="0px"
   y="0px"
   viewBox="-49 141 512 512"
   xml:space="preserve"
   sodipodi:docname="advantages-3.svg"
   inkscape:version="0.92.1 r15371"><metadata
     id="metadata19"><rdf:RDF><cc:Work
         rdf:about=""><dc:format>image/svg+xml</dc:format><dc:type
           rdf:resource="http://purl.org/dc/dcmitype/StillImage" /></cc:Work></rdf:RDF></metadata><defs
     id="defs17" /><sodipodi:namedview
     pagecolor="#ffffff"
     bordercolor="#666666"
     borderopacity="1"
     objecttolerance="10"
     gridtolerance="10"
     guidetolerance="10"
     inkscape:pageopacity="0"
     inkscape:pageshadow="2"
     inkscape:window-width="1920"
     inkscape:window-height="1017"
     id="namedview15"
     showgrid="false"
     inkscape:zoom="0.4609375"
     inkscape:cx="-96.542373"
     inkscape:cy="256"
     inkscape:window-x="-8"
     inkscape:window-y="-8"
     inkscape:window-maximized="1"
     inkscape:current-layer="Layer_1" /><g
     id="g4502"
     style="fill:#2b8df2;fill-opacity:1"><path
       id="path2"
       d="M343.327,367.07c0-16.209-13.186-29.395-29.395-29.395H259.91c13.125-14.753,21.703-31.552,23.36-46.623  c1.012-9.205-1.832-18.342-7.805-25.069c-5.459-6.149-12.924-9.576-21.02-9.651c-0.094-0.001-0.188-0.001-0.281-0.001  c-7.831,0-15.181,3.016-20.728,8.512c-5.548,5.497-8.618,12.82-8.654,20.635c-0.285,1.711-3.295,7.611-10.66,14.614  c-6.03,5.736-16.446,13.621-31.825,18.614c-6.03,1.958-11.541,5.563-16.379,10.715c-2.539,2.702-6.341,6.434-11.048,10.18  c-2.31-1.224-4.937-1.924-7.728-1.924H95.835c-9.136,0-16.568,7.432-16.568,16.568v136.818c0,9.136,7.432,16.568,16.568,16.568  h51.307c6.228,0,11.659-3.458,14.489-8.551h130.923c13.851,0,25.119-11.268,25.119-25.119c0-4.657-1.273-9.021-3.491-12.765  c7.217-4.418,12.042-12.376,12.042-21.44c0-4.657-1.273-9.021-3.491-12.765c7.217-4.418,12.042-12.376,12.042-21.44  c0-5.242-1.614-10.114-4.371-14.146C338.197,386.114,343.327,377.18,343.327,367.07z M313.932,380.432h-4.276  c-4.427,0-8.017,3.589-8.017,8.017s3.589,8.017,8.017,8.017c5.01,0,9.086,4.076,9.086,9.086s-4.076,9.086-9.086,9.086h-8.551  c-4.427,0-8.017,3.589-8.017,8.017c0,4.427,3.589,8.017,8.017,8.017c5.01,0,9.086,4.076,9.086,9.086c0,5.01-4.076,9.086-9.086,9.086  h-8.551c-4.427,0-8.017,3.589-8.017,8.017c0,4.427,3.589,8.017,8.017,8.017c5.01,0,9.086,4.076,9.086,9.086  c0,5.01-4.076,9.086-9.086,9.086H163.71v-77.495c0-4.427-3.589-8.017-8.017-8.017s-8.017,3.589-8.017,8.017v85.511  c0,0.295-0.239,0.534-0.534,0.534H95.836c-0.295,0-0.534-0.239-0.534-0.534V354.244c0-0.295,0.239-0.534,0.534-0.534h51.307  c0.295,0,0.534,0.239,0.534,0.534v17.103c0,4.427,3.589,8.017,8.017,8.017s8.017-3.589,8.017-8.017v-17.103  c0-0.389-0.032-0.77-0.059-1.152c6.011-4.653,10.818-9.357,13.954-12.695c2.967-3.161,6.211-5.327,9.642-6.44  c18.87-6.126,31.569-15.99,38.898-23.186c9.186-9.019,14.669-18.421,14.669-25.152c0-3.556,1.387-6.889,3.906-9.385  c2.55-2.527,5.927-3.862,9.576-3.867c4.494,0.042,7.471,2.341,9.178,4.263c2.926,3.295,4.366,8.033,3.857,12.672  c-1.751,15.929-14.49,35.619-32.454,50.161c-2.639,2.137-3.646,5.705-2.513,8.906c1.133,3.201,4.161,5.341,7.557,5.341h74.01  c7.368,0,13.361,5.993,13.361,13.361C327.293,374.437,321.299,380.432,313.932,380.432z"
       style="fill:#2b8df2;fill-opacity:1" /><path
       id="path4"
       d="M121.489,457.306c-4.427,0-8.059,3.632-8.059,8.059c0,4.427,3.632,8.059,8.059,8.059s8.059-3.632,8.059-8.059  C129.549,460.938,125.917,457.306,121.489,457.306z"
       style="fill:#2b8df2;fill-opacity:1" /><path
       id="path6"
       d="M448.71,396.999l13.772-36.443c1.003-2.651,0.53-5.634-1.243-7.847l-24.359-30.404l1.836-38.915  c0.134-2.83-1.238-5.523-3.606-7.078l-32.562-21.389l-10.278-37.578c-0.748-2.734-2.884-4.87-5.617-5.617l-37.578-10.278  l-21.389-32.562c-1.556-2.369-4.248-3.735-7.078-3.606l-38.915,1.836l-30.403-24.359c-2.212-1.772-5.195-2.245-7.847-1.243  l-36.443,13.772l-36.442-13.771c-2.653-1.003-5.635-0.53-7.847,1.243l-30.404,24.359l-38.915-1.836  c-2.844-0.134-5.523,1.238-7.078,3.606l-21.389,32.562l-37.578,10.278c-2.734,0.748-4.87,2.884-5.617,5.617l-10.278,37.578  l-32.562,21.389c-2.369,1.556-3.74,4.248-3.606,7.078l1.836,38.915l-24.359,30.404c-1.772,2.212-2.245,5.195-1.243,7.847  l13.772,36.442l-13.772,36.443c-1.003,2.651-0.53,5.634,1.243,7.847l24.359,30.404l-1.836,38.915  c-0.134,2.83,1.238,5.523,3.606,7.078l32.562,21.389l10.278,37.578c0.748,2.734,2.884,4.87,5.617,5.617l37.578,10.278l21.389,32.562  c1.556,2.369,4.253,3.731,7.078,3.606l38.915-1.836l30.404,24.359c2.212,1.773,5.196,2.246,7.847,1.243l36.443-13.772l36.443,13.772  c0.92,0.347,1.879,0.517,2.833,0.517c1.796,0,3.569-0.603,5.013-1.76l30.404-24.359l38.915,1.836  c2.839,0.126,5.522-1.238,7.078-3.606l21.389-32.562l37.578-10.278c2.734-0.748,4.87-2.884,5.617-5.617l10.278-37.578l32.562-21.389  c2.369-1.556,3.74-4.248,3.606-7.078l-1.836-38.915l24.359-30.404c1.772-2.212,2.245-5.195,1.243-7.847L448.71,396.999z   M432.641,399.834l13.226,34.999l-23.394,29.199c-1.221,1.523-1.844,3.44-1.752,5.39l1.764,37.373l-31.272,20.541  c-1.631,1.071-2.817,2.702-3.332,4.586l-9.871,36.089l-36.089,9.871c-1.883,0.515-3.513,1.7-4.586,3.332l-20.541,31.271  l-37.373-1.764c-1.951-0.09-3.867,0.531-5.39,1.752l-29.199,23.394l-34.999-13.226c-0.913-0.345-1.874-0.517-2.834-0.517  s-1.921,0.173-2.834,0.517l-34.999,13.226l-29.199-23.394c-1.523-1.221-3.443-1.842-5.39-1.752l-37.373,1.764l-20.541-31.271  c-1.071-1.631-2.702-2.817-4.586-3.332l-36.089-9.871l-9.871-36.089c-0.515-1.883-1.7-3.513-3.332-4.586l-31.271-20.541  l1.764-37.373c0.092-1.951-0.531-3.867-1.752-5.39l-23.394-29.199l13.226-34.999c0.691-1.826,0.691-3.842,0-5.668l-13.226-34.999  l23.394-29.199c1.221-1.523,1.844-3.44,1.752-5.39l-1.764-37.373l31.271-20.541c1.631-1.071,2.817-2.702,3.332-4.586l9.871-36.089  l36.089-9.871c1.883-0.515,3.513-1.7,4.586-3.332l20.541-31.271l37.373,1.764c1.948,0.091,3.867-0.531,5.39-1.752l29.199-23.394  l34.999,13.226c1.827,0.691,3.842,0.691,5.668,0l34.999-13.226l29.199,23.394c1.523,1.222,3.441,1.844,5.39,1.752l37.373-1.764  l20.541,31.271c1.071,1.631,2.702,2.817,4.586,3.332l36.089,9.871l9.871,36.089c0.515,1.883,1.7,3.513,3.332,4.586l31.271,20.541  l-1.764,37.373c-0.092,1.951,0.531,3.867,1.752,5.39l23.394,29.199l-13.226,34.999C431.951,395.993,431.951,398.007,432.641,399.834  z"
       style="fill:#2b8df2;fill-opacity:1" /><path
       id="path8"
       d="M340.144,263.491c1.927,1.927,3.838,3.922,5.679,5.926c1.581,1.722,3.741,2.595,5.908,2.595c1.937,0,3.88-0.698,5.419-2.111  c3.261-2.994,3.478-8.066,0.484-11.327c-1.995-2.172-4.064-4.332-6.153-6.42s-4.248-4.158-6.42-6.153  c-3.261-2.994-8.332-2.778-11.327,0.484c-2.994,3.261-2.778,8.333,0.484,11.327C336.222,259.652,338.215,261.562,340.144,263.491z"
       style="fill:#2b8df2;fill-opacity:1" /><path
       id="path10"
       d="M73.339,263.491c30.54-30.541,70.972-49.806,113.845-54.247c42.275-4.38,85.171,5.709,120.792,28.403  c3.735,2.379,8.689,1.281,11.068-2.453s1.281-8.689-2.453-11.068c-38.66-24.63-85.206-35.576-131.059-30.829  c-46.525,4.82-90.395,25.722-123.531,58.857C25.535,288.62,4.303,337.064,2.217,388.561C0.144,439.755,17.1,489.459,49.963,528.515  c1.585,1.884,3.853,2.855,6.139,2.855c1.822,0,3.653-0.618,5.157-1.882c3.387-2.851,3.823-7.908,0.973-11.295  c-30.281-35.988-45.905-81.795-43.994-128.982C20.159,341.748,39.728,297.101,73.339,263.491z"
       style="fill:#2b8df2;fill-opacity:1" /><path
       id="path12"
       d="M368.442,284.588c-3.735,2.379-4.832,7.335-2.453,11.068c22.694,35.622,32.781,78.52,28.403,120.792  c-4.441,42.874-23.706,83.305-54.246,113.847c-33.611,33.61-78.259,53.179-125.72,55.101  c-47.179,1.918-92.994-13.713-128.982-43.993c-3.387-2.851-8.444-2.415-11.295,0.973c-2.851,3.387-2.415,8.444,0.973,11.295  c36.921,31.065,83.351,47.917,131.566,47.916c2.789,0,5.589-0.057,8.389-0.17c51.497-2.085,99.94-23.317,136.408-59.784  c33.136-33.136,54.039-77.007,58.857-123.532c4.75-45.855-6.198-92.399-30.829-131.059  C377.132,283.308,372.174,282.209,368.442,284.588z"
       style="fill:#2b8df2;fill-opacity:1" /></g></svg>