<?xml version="1.0" encoding="UTF-8" standalone="no"?>
<!-- Generator: Adobe Illustrator 22.1.0, SVG Export Plug-In . SVG Version: 6.00 Build 0)  -->

<svg
   xmlns:dc="http://purl.org/dc/elements/1.1/"
   xmlns:cc="http://creativecommons.org/ns#"
   xmlns:rdf="http://www.w3.org/1999/02/22-rdf-syntax-ns#"
   xmlns:svg="http://www.w3.org/2000/svg"
   xmlns="http://www.w3.org/2000/svg"
   xmlns:sodipodi="http://sodipodi.sourceforge.net/DTD/sodipodi-0.dtd"
   xmlns:inkscape="http://www.inkscape.org/namespaces/inkscape"
   version="1.2"
   id="Capa_1"
   x="0px"
   y="0px"
   viewBox="-49 141 512 512"
   xml:space="preserve"
   sodipodi:docname="advantages-2.svg"
   inkscape:version="0.92.1 r15371"><metadata
     id="metadata9"><rdf:RDF><cc:Work
         rdf:about=""><dc:format>image/svg+xml</dc:format><dc:type
           rdf:resource="http://purl.org/dc/dcmitype/StillImage" /></cc:Work></rdf:RDF></metadata><defs
     id="defs7" /><sodipodi:namedview
     pagecolor="#ffffff"
     bordercolor="#666666"
     borderopacity="1"
     objecttolerance="10"
     gridtolerance="10"
     guidetolerance="10"
     inkscape:pageopacity="0"
     inkscape:pageshadow="2"
     inkscape:window-width="1920"
     inkscape:window-height="1017"
     id="namedview5"
     showgrid="false"
     inkscape:zoom="0.4609375"
     inkscape:cx="256"
     inkscape:cy="256"
     inkscape:window-x="-8"
     inkscape:window-y="-8"
     inkscape:window-maximized="1"
     inkscape:current-layer="Capa_1" /><path
     d="M455.5,589.498h-31.498v-273.27l20.876,7.796c0.058,0.021,0.116,0.036,0.174,0.056c0.121,0.043,0.243,0.083,0.366,0.119  c0.115,0.033,0.23,0.06,0.346,0.088c0.107,0.025,0.214,0.053,0.323,0.073c0.163,0.031,0.325,0.054,0.488,0.075  c0.065,0.008,0.13,0.02,0.196,0.025c0.244,0.024,0.487,0.039,0.729,0.039c0.024,0,0.049-0.006,0.074-0.006  c0.314-0.003,0.623-0.029,0.927-0.07c0.085-0.012,0.168-0.024,0.252-0.039c0.677-0.113,1.32-0.316,1.922-0.599  c0.057-0.026,0.111-0.053,0.167-0.08c0.304-0.151,0.599-0.317,0.878-0.508c0.018-0.012,0.033-0.025,0.051-0.038  c0.255-0.177,0.495-0.372,0.726-0.579c0.063-0.056,0.125-0.111,0.187-0.169c0.231-0.223,0.45-0.456,0.651-0.706  c0.044-0.054,0.083-0.111,0.125-0.167c0.183-0.238,0.351-0.487,0.503-0.748c0.027-0.046,0.058-0.09,0.084-0.137  c0.171-0.306,0.317-0.626,0.445-0.957c0.01-0.025,0.025-0.049,0.035-0.075c0.019-0.051,0.031-0.102,0.049-0.154  c0.05-0.143,0.097-0.288,0.138-0.436c0.03-0.107,0.057-0.212,0.082-0.318c0.029-0.126,0.057-0.251,0.079-0.379  c0.024-0.135,0.045-0.269,0.061-0.403c0.013-0.102,0.024-0.203,0.033-0.307c0.013-0.159,0.021-0.318,0.023-0.477  c0.001-0.05,0.008-0.099,0.008-0.149v-30c0-0.039-0.005-0.076-0.006-0.115c-0.002-0.161-0.012-0.32-0.024-0.48  c-0.007-0.096-0.015-0.192-0.026-0.288c-0.017-0.138-0.038-0.274-0.063-0.41c-0.02-0.115-0.04-0.229-0.065-0.343  c-0.025-0.111-0.056-0.222-0.085-0.332c-0.036-0.131-0.072-0.261-0.114-0.389c-0.03-0.093-0.066-0.184-0.101-0.275  c-0.051-0.137-0.104-0.274-0.162-0.406c-0.039-0.086-0.082-0.171-0.124-0.256c-0.063-0.129-0.126-0.258-0.196-0.382  c-0.053-0.094-0.11-0.184-0.167-0.274c-0.067-0.109-0.135-0.219-0.208-0.324c-0.071-0.104-0.149-0.203-0.227-0.303  c-0.066-0.086-0.133-0.174-0.203-0.258c-0.091-0.107-0.188-0.211-0.285-0.314c-0.066-0.069-0.131-0.141-0.199-0.207  c-0.104-0.103-0.214-0.199-0.324-0.295c-0.073-0.064-0.146-0.128-0.221-0.189c-0.107-0.085-0.218-0.166-0.329-0.246  c-0.091-0.064-0.181-0.13-0.274-0.191c-0.101-0.065-0.203-0.125-0.308-0.187c-0.115-0.067-0.231-0.134-0.352-0.196  c-0.09-0.046-0.182-0.089-0.273-0.131c-0.14-0.065-0.281-0.128-0.425-0.185c-0.039-0.015-0.075-0.034-0.114-0.049l-241.003-90.005  c-0.088-0.033-0.177-0.055-0.266-0.084c-0.07-0.023-0.141-0.046-0.212-0.067c-0.324-0.097-0.649-0.179-0.976-0.23  c-0.017-0.003-0.032-0.005-0.049-0.007c-0.327-0.051-0.654-0.07-0.979-0.077c-0.048-0.001-0.093-0.011-0.141-0.011  c-0.066,0-0.132,0.007-0.197,0.009c-0.085,0.002-0.17,0.006-0.254,0.011c-0.153,0.01-0.306,0.023-0.458,0.043  c-0.081,0.01-0.162,0.02-0.243,0.032c-0.148,0.023-0.295,0.052-0.441,0.085c-0.087,0.019-0.174,0.037-0.261,0.059  c-0.126,0.033-0.251,0.071-0.376,0.111c-0.107,0.033-0.214,0.065-0.319,0.104c-0.026,0.01-0.054,0.017-0.08,0.026l-112.36,42.14  c-1.88,0.7-3.37,2.091-4.2,3.91c-0.83,1.83-0.899,3.87-0.189,5.74c1.09,2.91,3.91,4.87,7.02,4.87c0.9,0,1.79-0.16,2.63-0.48  l109.737-41.146l233.495,87.198v13.988l-230.88-86.223c-0.029-0.011-0.059-0.018-0.087-0.027c-0.141-0.051-0.283-0.093-0.426-0.135  c-0.096-0.028-0.19-0.06-0.287-0.084c-0.141-0.035-0.284-0.062-0.428-0.089c-0.1-0.019-0.198-0.042-0.297-0.056  c-0.141-0.021-0.282-0.032-0.424-0.045c-0.103-0.01-0.205-0.023-0.308-0.028c-0.136-0.007-0.272-0.003-0.41-0.003  c-0.107,0.001-0.216-0.002-0.323,0.003c-0.127,0.007-0.254,0.022-0.381,0.035c-0.118,0.012-0.236,0.021-0.353,0.038  c-0.113,0.017-0.226,0.042-0.339,0.064c-0.131,0.025-0.262,0.05-0.391,0.082c-0.101,0.025-0.199,0.058-0.299,0.088  c-0.142,0.041-0.282,0.083-0.42,0.133c-0.028,0.011-0.057,0.017-0.085,0.027l-229.867,86.203v-13.98l94.682-35.514  c1.88-0.7,3.37-2.09,4.2-3.91c0.83-1.83,0.9-3.87,0.189-5.74c-1.09-2.909-3.909-4.869-7.02-4.869c-0.9,0-1.78,0.159-2.63,0.479  l-99.55,37.33c-0.046,0.017-0.088,0.04-0.132,0.058c-0.131,0.052-0.258,0.108-0.385,0.166c-0.095,0.045-0.189,0.088-0.281,0.136  c-0.12,0.062-0.237,0.128-0.354,0.196c-0.102,0.059-0.201,0.118-0.298,0.181c-0.096,0.063-0.189,0.128-0.281,0.194  c-0.111,0.079-0.222,0.16-0.328,0.245c-0.073,0.059-0.143,0.119-0.214,0.181c-0.115,0.1-0.229,0.201-0.338,0.308  c-0.061,0.059-0.117,0.119-0.175,0.18c-0.108,0.113-0.215,0.227-0.316,0.347c-0.059,0.07-0.114,0.143-0.17,0.214  c-0.09,0.114-0.179,0.229-0.262,0.349c-0.063,0.092-0.121,0.187-0.182,0.281c-0.066,0.105-0.134,0.211-0.195,0.321  c-0.063,0.114-0.121,0.23-0.18,0.348c-0.035,0.073-0.077,0.143-0.111,0.217c-0.014,0.029-0.022,0.06-0.035,0.088  c-0.054,0.122-0.101,0.247-0.148,0.373c-0.041,0.108-0.084,0.216-0.119,0.326c-0.034,0.104-0.062,0.21-0.091,0.315  c-0.04,0.143-0.08,0.285-0.111,0.43c-0.014,0.068-0.024,0.137-0.037,0.205c-0.036,0.189-0.066,0.378-0.087,0.568  c-0.004,0.034-0.006,0.068-0.009,0.104c-0.022,0.224-0.033,0.448-0.034,0.673c0,0.008-0.001,0.017-0.001,0.024v30  c0,0.055,0.007,0.107,0.008,0.162c0.004,0.154,0.011,0.309,0.023,0.463c0.009,0.107,0.022,0.215,0.035,0.322  c0.017,0.129,0.035,0.259,0.059,0.389c0.024,0.132,0.053,0.262,0.083,0.393c0.024,0.102,0.05,0.205,0.079,0.307  c0.043,0.151,0.09,0.299,0.142,0.446c0.019,0.051,0.03,0.102,0.049,0.152c0.01,0.025,0.023,0.047,0.033,0.071  c0.128,0.33,0.275,0.65,0.446,0.955c0.027,0.051,0.059,0.097,0.088,0.145c0.152,0.257,0.318,0.503,0.498,0.739  c0.043,0.056,0.083,0.114,0.127,0.17c0.2,0.247,0.418,0.479,0.647,0.699c0.064,0.061,0.13,0.118,0.195,0.177  c0.228,0.204,0.465,0.396,0.716,0.57c0.021,0.014,0.038,0.03,0.058,0.043c0.276,0.188,0.57,0.352,0.872,0.503  c0.058,0.029,0.115,0.057,0.175,0.084c0.6,0.28,1.241,0.482,1.914,0.596c0.085,0.015,0.169,0.027,0.255,0.039  c0.303,0.041,0.61,0.067,0.925,0.07c0.024,0,0.049,0.006,0.074,0.006c0.243,0,0.486-0.015,0.731-0.039  c0.064-0.006,0.128-0.018,0.193-0.025c0.164-0.021,0.328-0.044,0.493-0.076c0.108-0.021,0.215-0.047,0.321-0.072  c0.116-0.028,0.231-0.056,0.348-0.09c0.126-0.036,0.249-0.078,0.372-0.121c0.058-0.02,0.116-0.034,0.174-0.056l19.87-7.451v272.929  H-41.5c-4.143,0-7.5,3.357-7.5,7.5s3.357,7.5,7.5,7.5h37.848c0.052,0.001,0.102,0.008,0.154,0.008c0.053,0,0.103-0.007,0.154-0.008  h39.623c0.071,0.002,0.141,0.011,0.213,0.011h60.006h0.004h60.006c4.143,0,7.5-3.357,7.5-7.5v-60.011c0-4.143-3.357-7.5-7.5-7.5  h-22.5v-52.505c0-4.143-3.357-7.5-7.5-7.5h-22.506v-52.501c0-4.142-3.357-7.5-7.5-7.5h-52.51v-24.499h325.014v24.499H316.5  c-4.143,0-7.5,3.358-7.5,7.5v52.501h-22.506c-4.143,0-7.5,3.357-7.5,7.5v52.505h-22.5c-4.143,0-7.5,3.357-7.5,7.5v60.011  c0,4.143,3.357,7.5,7.5,7.5H316.5h0.004h60.006c0.072,0,0.142-0.009,0.213-0.011h39.625c0.052,0.001,0.102,0.008,0.154,0.008  c0.053,0,0.102-0.007,0.154-0.008H455.5c4.143,0,7.5-3.357,7.5-7.5C463,592.855,459.643,589.498,455.5,589.498z M4.002,310.943  l202.502-75.939l202.498,75.623v278.871H384.01v-52.5c0-0.026-0.004-0.051-0.004-0.077V477.08c0-0.025,0.004-0.051,0.004-0.077  v-60.011c0-0.026-0.004-0.051-0.004-0.077v-69.919c0-4.143-3.357-7.5-7.5-7.5H36.492c-4.143,0-7.5,3.357-7.5,7.5v69.996v60.011  v59.995v52.5H4.002V310.943z M324.004,544.504h22.5c0.039,0,0.077-0.006,0.116-0.006h22.386v45.011h-45.002L324.004,544.504  L324.004,544.504z M369.006,484.503v44.995h-15.002v-44.995H369.006z M43.992,529.498v-44.995h15.006v44.995H43.992z   M43.992,544.498h22.39c0.039,0,0.077,0.006,0.116,0.006h22.5v45.005H43.992V544.498z M149.008,589.508h-45.006v-45.005h22.506  c0.039,0,0.077-0.006,0.116-0.006h22.384V589.508z M119.008,529.498H96.502h-0.004h-22.5v-44.995h22.504  c0.065,0,0.129-0.008,0.193-0.01h22.313V529.498z M89.002,424.492v45.001H66.498c-0.065,0-0.129,0.008-0.193,0.01H43.992v-45.011  H89.002z M43.992,369.993v-15.497h325.014v15.497H43.992z M324,424.492h45.006v45.011h-22.309c-0.064-0.002-0.128-0.01-0.193-0.01  H324V424.492z M293.994,484.493h22.313c0.064,0.002,0.128,0.01,0.193,0.01h22.504v44.995h-22.5H316.5h-22.506V484.493z   M263.994,544.498h22.384c0.039,0,0.077,0.006,0.116,0.006H309v45.005h-45.006V544.498z"
     id="path2"
     style="fill:#2b8df2;fill-opacity:1" /></svg>