<?xml version="1.0" encoding="UTF-8" standalone="no"?>
<!-- Generator: Adobe Illustrator 22.1.0, SVG Export Plug-In . SVG Version: 6.00 Build 0)  -->

<svg
   xmlns:dc="http://purl.org/dc/elements/1.1/"
   xmlns:cc="http://creativecommons.org/ns#"
   xmlns:rdf="http://www.w3.org/1999/02/22-rdf-syntax-ns#"
   xmlns:svg="http://www.w3.org/2000/svg"
   xmlns="http://www.w3.org/2000/svg"
   xmlns:sodipodi="http://sodipodi.sourceforge.net/DTD/sodipodi-0.dtd"
   xmlns:inkscape="http://www.inkscape.org/namespaces/inkscape"
   version="1.2"
   id="Layer_1"
   x="0px"
   y="0px"
   viewBox="0 0 512 512"
   xml:space="preserve"
   sodipodi:docname="advantages-1.svg"
   width="512"
   height="512"
   inkscape:version="0.92.1 r15371"><metadata
     id="metadata19"><rdf:RDF><cc:Work
         rdf:about=""><dc:format>image/svg+xml</dc:format><dc:type
           rdf:resource="http://purl.org/dc/dcmitype/StillImage" /><dc:title /></cc:Work></rdf:RDF></metadata><defs
     id="defs17" /><sodipodi:namedview
     pagecolor="#ffffff"
     bordercolor="#666666"
     borderopacity="1"
     objecttolerance="10"
     gridtolerance="10"
     guidetolerance="10"
     inkscape:pageopacity="0"
     inkscape:pageshadow="2"
     inkscape:window-width="1920"
     inkscape:window-height="1017"
     id="namedview15"
     showgrid="false"
     inkscape:zoom="0.65186405"
     inkscape:cx="-38.213143"
     inkscape:cy="320.5841"
     inkscape:window-x="-8"
     inkscape:window-y="-8"
     inkscape:window-maximized="1"
     inkscape:current-layer="g12" /><g
     id="g12"
     transform="translate(18)"
     style="fill:#504416;fill-opacity:1"><g
       id="g4502"><path
         inkscape:connector-curvature="0"
         id="path4487"
         d="M 217.5,510.92528 C 181.23779,504.82657 148.45291,480.66913 131.59098,447.62349 122.05541,428.93588 118.55119,412.26614 119.26747,389 c 0.381,-12.37538 0.99754,-17.47435 3.05842,-25.29396 20.98649,-79.62944 113.27974,-114.62068 181.99408,-68.99961 35.69242,23.69704 56.49516,68.28863 51.73877,110.90432 -5.89147,52.7857 -44.66271,95.08011 -96.10547,104.83863 -8.85449,1.67967 -33.64352,1.95755 -42.45327,0.4759 z m 40.02168,-18.81359 C 307.80135,481.73416 342.74028,434.97201 337.92511,384.5 333.93238,342.64866 305.8897,308.98607 264.5,296.36007 c -8.30671,-2.53397 -10.34807,-2.74934 -26.5,-2.79576 -14.00717,-0.0403 -18.79734,0.31369 -24,1.77339 -30.52271,8.56368 -53.29804,27.10569 -66.52809,54.1623 -6.7007,13.70351 -9.54393,24.61359 -10.22586,39.23888 -2.32763,49.92038 32.27879,93.84596 81.75395,103.76945 9.86533,1.97874 27.91318,1.79291 38.52168,-0.39664 z"
         style="fill:#2b8df2;fill-opacity:1" /><path
         inkscape:connector-curvature="0"
         id="path4489"
         d="M 15.5,436.64715 C 12.75,435.36383 8.822727,432.45325 6.772727,430.1792 -0.6003195,422.00031 0,440.71219 0,219.07422 V 19.39269 L 2.5777524,14.21981 C 5.441119,8.47379 9.482811,4.6103 15.5,1.86734 19.331545,0.12071 28.680806,0.04341 237.5,0.03173 l 218,-0.0122 5.05561,2.35416 c 2.79928,1.3035 6.7209,4.29969 8.78693,6.71339 7.17524,8.38265 6.70553,-7.16781 6.41728,212.45261 L 475.5,419.5 l -2.94896,5.32355 c -1.62193,2.92795 -4.61878,6.64607 -6.65967,8.26249 C 458.64603,438.82445 457.19366,439 416.96317,439 h -36.78538 l -2.5889,-3.07673 c -3.50665,-4.16742 -3.3923,-8.27371 0.33419,-12.00019 L 380.84615,421 h 35.06115 35.06115 l 3.26577,-2.91792 3.26578,-2.91792 0.26225,-194.33208 C 457.95753,76.12932 457.7308,25.78752 456.87444,23.71017 454.40405,17.71754 458.36511,18 376.79845,18 h -74.75653 l -0.27096,66.08693 -0.27096,66.08693 -2.80576,2.41307 c -3.91031,3.36302 -7.48566,3.04305 -16.46942,-1.4739 l -7.7308,-3.88696 -7.49701,3.83748 c -4.12335,2.11061 -8.9695,3.85974 -10.76921,3.88696 -1.89192,0.0286 -6.53319,-1.59011 -11.00298,-3.83748 l -7.7308,-3.88696 -7.49701,3.83748 c -4.12335,2.11061 -8.7445,3.85974 -10.26921,3.88696 -1.52471,0.0272 -6.36221,-1.75553 -10.75,-3.96167 L 201,146.97768 l -7.9778,4.01116 c -9.30507,4.67849 -13.09015,5.03412 -16.56765,1.55661 L 174,150.09091 V 84.04546 18 H 98.58889 23.177787 L 20.588894,21.07672 18,24.15345 v 195.5002 195.5002 l 2.923077,2.92307 L 23.846154,421 h 34.642664 c 35.338304,0 37.377082,0.19832 40.229382,3.91334 2.16336,2.81771 1.54911,8.91025 -1.17275,11.63211 L 95.09091,439 57.795455,438.99 C 20.82933,438.98055 20.455848,438.95986 15.5,436.64715 Z M 236.90028,128.18398 c 2.51723,-0.32416 5.44269,0.5579 11.2647,3.39646 l 7.86441,3.83433 6.7353,-3.37399 c 3.70442,-1.8557 8.06358,-3.58842 9.68701,-3.85049 2.66761,-0.43063 4.03439,-0.11068 9.7983,2.29369 1.65465,0.69022 1.75,-2.35414 1.75,-55.87699 V 18 h -46 -46 v 56.52568 56.52568 l 2.95034,-1.52568 c 4.57902,-2.36791 8.90682,-1.75575 17.04788,2.41138 l 7.49821,3.83808 7.00179,-3.57664 c 3.85098,-1.96715 8.53191,-3.77369 10.40206,-4.01452 z"
         style="fill:#2b8df2;fill-opacity:1" /><path
         inkscape:connector-curvature="0"
         id="path4493"
         d="M 79.784615,148.21538 C 64.039752,132.47052 64,132.41933 64,127.8897 64,121.86232 66.869395,119 72.911682,119 c 3.924714,0 4.859892,0.55715 11.185549,6.66406 L 91,132.32812 v -26.2298 c 0,-26.640491 0.294935,-29.038392 3.913343,-31.816517 2.817705,-2.163364 8.910247,-1.549118 11.632107,1.172742 L 109,77.909091 v 27.770429 27.77042 l 7.27352,-7.22497 C 122.63059,119.91032 124.00625,119 127.19173,119 c 5.07929,0 6.64783,0.78906 8.43376,4.24266 3.01954,5.83915 1.63003,8.09202 -15.45349,25.0554 C 104.57371,163.78667 104.29916,164 99.96405,164 c -4.340809,0 -4.588803,-0.19398 -20.179435,-15.78462 z"
         style="fill:#2b8df2;fill-opacity:1" /><path
         inkscape:connector-curvature="0"
         id="path4495"
         d="M 68.45454,51.54546 C 66.79336,49.88427 66,47.97138 66,45.62724 66,36.20195 66.77672,36 103.02726,36 h 30.12659 l 2.92307,2.92308 C 137.82385,40.67 139,42.903 139,44.47274 c 0,3.32824 -2.43281,8.09563 -4.5448,8.90608 C 133.56487,53.72047 118.90277,54 101.87276,54 H 70.90909 Z"
         style="fill:#2b8df2;fill-opacity:1" /><path
         inkscape:connector-curvature="0"
         id="path4491"
         d="M 192.17431,445.68555 C 190.70074,444.117 190,442.10018 190,439.42757 c 0,-3.81249 0.77537,-4.71837 23.33381,-27.2615 l 23.33382,-23.31796 -1.37673,-5.17406 c -3.22993,-12.13883 2.95998,-25.54374 14.2091,-30.77129 6.09466,-2.83224 17.21672,-2.59149 23.28324,0.50399 9.39544,4.79408 14.17284,12.74692 14.17284,23.59325 0,15.46963 -10.55872,25.96746 -26.14098,25.99023 -3.6767,0.005 -7.7704,-0.40294 -9.09712,-0.90735 -2.19454,-0.83437 -3.57018,0.24341 -15.24442,11.94362 l -12.83221,12.86075 4.17933,4.53403 c 5.09103,5.52312 5.66071,10.18824 1.72477,14.12417 -4.0068,4.00681 -9.00096,3.40535 -14.21512,-1.71197 l -4.24537,-4.16651 -4.52014,4.16651 c -5.47924,5.05059 -10.74855,5.72876 -14.39051,1.85207 z m 72.7345,-61.13839 c 1.54521,-0.79906 3.37746,-2.82406 4.07166,-4.5 3.71476,-8.96824 -8.93115,-16.01049 -14.96828,-8.33552 -3.52365,4.47958 -1.8311,11.20804 3.34481,13.29678 3.09506,1.24901 4.39846,1.1694 7.55181,-0.46126 z"
         style="fill:#2b8df2;fill-opacity:1" /></g></g></svg>