<?xml version="1.0" encoding="UTF-8" standalone="no"?>
<!-- Generator: Adobe Illustrator 22.1.0, SVG Export Plug-In . SVG Version: 6.00 Build 0)  -->

<svg
   xmlns:dc="http://purl.org/dc/elements/1.1/"
   xmlns:cc="http://creativecommons.org/ns#"
   xmlns:rdf="http://www.w3.org/1999/02/22-rdf-syntax-ns#"
   xmlns:svg="http://www.w3.org/2000/svg"
   xmlns="http://www.w3.org/2000/svg"
   xmlns:sodipodi="http://sodipodi.sourceforge.net/DTD/sodipodi-0.dtd"
   xmlns:inkscape="http://www.inkscape.org/namespaces/inkscape"
   version="1.2"
   id="Layer_1"
   x="0px"
   y="0px"
   viewBox="0 0 512 512"
   xml:space="preserve"
   sodipodi:docname="advantages-4.svg"
   width="512"
   height="512"
   inkscape:version="0.92.1 r15371"><metadata
     id="metadata21"><rdf:RDF><cc:Work
         rdf:about=""><dc:format>image/svg+xml</dc:format><dc:type
           rdf:resource="http://purl.org/dc/dcmitype/StillImage" /><dc:title /></cc:Work></rdf:RDF></metadata><defs
     id="defs19" /><sodipodi:namedview
     pagecolor="#ffffff"
     bordercolor="#666666"
     borderopacity="1"
     objecttolerance="10"
     gridtolerance="10"
     guidetolerance="10"
     inkscape:pageopacity="0"
     inkscape:pageshadow="2"
     inkscape:window-width="1920"
     inkscape:window-height="1017"
     id="namedview17"
     showgrid="false"
     inkscape:zoom="0.92187498"
     inkscape:cx="-150.31261"
     inkscape:cy="268.59724"
     inkscape:window-x="-8"
     inkscape:window-y="-8"
     inkscape:window-maximized="1"
     inkscape:current-layer="g4511" /><g
     id="g4511"><g
       id="g4499"><path
         style="fill:#2b8df2;fill-opacity:1"
         d="m 230.79563,510.38906 c -34.15555,-5.04524 -65.09168,-16.98026 -91.5,-35.30029 C 109.27864,454.26532 84.83838,426.1776 68.8568,394.13764 53.77467,363.90089 47.89982,339.75814 47.06801,304.59633 c -0.66412,-28.07332 1.36737,-44.86428 8.16706,-67.50348 5.57713,-18.56877 17.58791,-44.42541 25.52654,-54.95318 3.03646,-4.02679 4.19627,-4.82532 7.39413,-5.09084 5.05314,-0.41958 8.3707,1.86312 9.21002,6.33709 0.579,3.08633 0.0122,4.5995 -4.44567,11.86882 -15.79055,25.7491 -26.51042,57.80457 -28.71264,85.85901 l -0.68686,8.75 h 34.13752 34.13752 l 0.004,-2.25 c 0.0117,-6.4463 2.22488,-30.76221 3.10156,-34.07564 2.03587,-7.69466 13.14892,-8.39543 15.95826,-1.0063 0.4762,1.25249 0.46695,5.92639 -0.0209,10.54109 -0.48202,4.55997 -1.17267,12.45335 -1.53479,17.54085 l -0.65839,9.25 h 51.57508 51.57507 v -47 -47 h -23.32559 -23.32568 l -2.37432,-2.52734 c -3.40881,-3.62852 -3.23991,-8.98729 0.38145,-12.10225 2.72615,-2.34493 3.00237,-2.37041 25.7,-2.37041 h 22.94425 V 134.3183 89.772842 l 2.45455,-2.454546 c 2.13445,-2.134452 3.35951,-2.454545 9.39404,-2.454545 43.15937,0 90.74532,16.720709 127.65141,44.854059 8.40329,6.40579 27.54899,25.20503 34.77524,34.14594 45.19822,55.923 59.40354,131.35214 37.61541,199.73491 -25.32246,79.47539 -94.75489,136.94431 -177.86442,147.21763 -11.30422,1.39734 -44.4145,1.14026 -55.02623,-0.42723 z m 21,-54.02531 v -38.5 h -40.04109 -40.04109 l 5.52191,10.79526 c 18.1131,35.41087 41.35461,57.5128 68.06027,64.72315 2.75,0.74248 5.3375,1.37958 5.75,1.41578 0.4125,0.0362 0.75,-17.25919 0.75,-38.43419 z m 28.5,35.30051 c 17.35506,-5.64756 36.63231,-21.72368 50.32641,-41.96934 2.21618,-3.27646 4.07469,-4.87017 6.23183,-5.34396 5.92592,-1.30155 10.94176,2.77971 10.94176,8.90301 0,3.05705 -8.52069,15.04642 -17.14792,24.12865 l -6.96434,7.33164 5.30613,-1.96936 c 9.56439,-3.54979 29.12866,-13.55969 38.30613,-19.59903 15.76891,-10.3769 38.47015,-31.00524 46.4432,-42.20235 l 2.19299,-3.07977 h -3.0681 c -5.54954,0 -8.80956,-6.29823 -6.44691,-12.4552 1.13019,-2.94523 5.95434,-4.5448 13.70672,-4.5448 4.72458,0 7.80282,-0.45485 8.45943,-1.25 2.29358,-2.77746 11.37032,-21.54531 15.03334,-31.0842 6.44763,-16.79028 10.76676,-35.82773 12.5725,-55.4158 l 0.57617,-6.25 h -34.32912 -34.32912 l -0.65604,13.75 c -0.36082,7.5625 -1.54893,20.05 -2.64023,27.75 -1.77275,12.50816 -2.25816,14.23976 -4.55527,16.25 -4.33504,3.79366 -10.55387,2.90208 -13.01987,-1.86663 -1.33445,-2.58053 -1.27755,-4.30344 0.55678,-16.85922 1.12372,-7.69173 2.32866,-19.61878 2.67765,-26.50456 l 0.63452,-12.51959 h -51.15432 -51.15432 v 46.94774 46.94774 l 22.92155,0.30226 c 22.68957,0.2992 22.94764,0.3268 25.5,2.72657 3.19839,3.0072 3.40815,7.75118 0.50587,11.44083 l -2.07258,2.63486 h -23.42742 -23.42742 v 38.51905 38.51905 l 2.75,-0.64255 c 1.5125,-0.35341 5.45,-1.52117 8.75,-2.59504 z m -90.56692,-13.55051 c -6.48321,-7.07693 -14.28817,-17.54018 -19.97314,-26.77577 -4.56776,-7.42063 -15.95994,-30.52894 -15.95994,-32.37374 0,-0.77081 -7.36463,-1.10049 -24.58333,-1.10049 -14.73667,0 -24.44982,0.3727 -24.25,0.93049 0.18333,0.51176 3.62124,4.78436 7.63979,9.49466 17.29931,20.27717 43.39741,39.29328 69.61967,50.72767 6.09063,2.65586 11.45652,4.83296 11.92421,4.83801 0.46769,0.005 -1.52008,-2.57833 -4.41726,-5.74083 z m -43.30103,-79 c -0.27649,-0.9625 -1.4163,-4.9 -2.53291,-8.75 -6.09594,-21.01851 -12.09914,-61.03206 -12.09914,-80.64522 v -2.85478 h -34 -34 v 4.12166 c 0,6.30877 2.84827,24.28474 5.52643,34.87834 4.43979,17.56182 10.10611,32.0754 18.25189,46.75 l 4.57953,8.25 h 27.38846 c 25.6091,0 27.3558,-0.11369 26.88574,-1.75 z m 105.36795,-45.25 v -47 h -51.59332 -51.59333 l 0.66285,9.75 c 1.72239,25.33492 5.90301,50.47669 11.68129,70.25 1.6876,5.775 3.29504,11.2875 3.57207,12.25 0.46975,1.63203 3.42813,1.75 43.88707,1.75 h 43.38337 z m 119,-70.02844 c 0,-20.43473 -6.09205,-56.3319 -13.5858,-80.05382 l -2.50121,-7.91774 h -42.9565 -42.95649 v 47 47 h 51 51 z m 85.39317,-0.22156 c -2.51824,-27.31704 -9.77683,-52.32639 -21.95451,-75.6439 l -6.06134,-11.6061 -27.64557,-0.26574 -27.64556,-0.26575 1.48421,4.76575 c 7.19754,23.11088 13.42615,61.38385 13.42876,82.51574 l 8.4e-4,6.75 h 34.48467 34.48467 z M 345.32806,173.34115 c -10.70612,-24.20842 -32.38707,-50.47237 -50.38892,-61.04032 -6.89374,-4.04695 -20.99873,-9.43708 -24.69513,-9.43708 -1.2391,0 -1.44838,5.49083 -1.44838,38 v 38 h 39.48739 39.48739 z m 66.34114,0.2726 c -12.25867,-14.92304 -32.23245,-32.15168 -49.87357,-43.0191 -7.51503,-4.62947 -24.56017,-12.98526 -33,-16.17711 l -4.5,-1.70186 4.1165,4.32404 c 13.5563,14.23972 28.29219,37.53281 36.73934,58.07403 l 1.54211,3.75 h 24.64414 24.64415 z"
         id="path4499"
         inkscape:connector-curvature="0" /><path
         style="fill:#2b8df2;fill-opacity:1"
         d="m 142.80689,229.38799 c -0.93121,-0.70777 -2.61182,-3.61765 -3.7347,-6.46642 -6.14397,-15.58736 -13.28313,-26.52127 -35.70471,-54.68314 -25.987562,-32.6408 -33.711912,-45.61788 -38.556552,-64.77581 -1.7047,-6.7412 -1.95444,-10.15667 -1.54518,-21.132473 0.58669,-15.734241 2.11996,-21.895894 8.73224,-35.091712 10.68011,-21.313777 28.506602,-36.266508 52.051342,-43.660264 6.58874,-2.069065 9.4173,-2.339725 24.45067,-2.339646 16.63301,8.8e-5 17.20508,0.07115 26.5,3.291886 13.21481,4.578996 23.76511,11.14442 33.41436,20.793666 22.52293,22.522937 30.79909,56.073201 21.01897,85.207683 -5.21539,15.53638 -13.20527,28.34195 -33.67556,53.97259 -24.91572,31.19671 -31.01207,40.2342 -37.34394,55.3603 -1.92792,4.60558 -4.24574,8.93628 -5.1507,9.62378 -2.12464,1.61408 -8.27819,1.55497 -10.45624,-0.10044 z m 8.7364,-34.39956 c 4.56043,-7.92513 13.97401,-20.73427 28.42879,-38.68326 28.30867,-35.15184 36.07111,-50.31597 36.14126,-70.602921 0.10856,-31.394219 -22.00652,-59.34178 -52.64097,-66.524156 -11.06745,-2.59481 -27.65658,-1.59625 -38.07996,2.29217 -16.3642,6.10463 -29.708795,17.616179 -37.270692,32.151103 -10.56957,20.31604 -10.84575,41.333354 -0.80531,61.283384 5.906037,11.73509 11.60484,19.88706 29.363492,42.00357 8.53671,10.63156 18.96352,24.59384 23.17069,31.02729 4.20718,6.43345 7.94415,11.72095 8.30439,11.75 0.36024,0.029 1.88498,-2.08468 3.38831,-4.69718 z"
         id="path4501"
         inkscape:connector-curvature="0" /><path
         style="fill:#2b8df2;fill-opacity:1"
         d="M 356.08558,434.93578 C 345.19754,432.74647 336,421.33827 336,410.02257 c 0,-10.54986 8.02361,-21.47307 17.9315,-24.41165 6.70813,-1.98955 9.35708,-2.01321 15.637,-0.13964 10.80965,3.22497 17.4315,12.4557 17.4315,24.29913 0,16.99869 -14.16873,28.53251 -30.91442,25.16537 z m 11.84184,-19.57064 c 4.02308,-5.11452 1.7591,-11.86703 -4.62744,-13.80173 C 359.03226,400.27058 353,405.48698 353,410.47033 c 0,0.75692 1.165,2.76075 2.58889,4.45294 3.49618,4.15497 9.25556,4.36123 12.33853,0.44187 z"
         id="path4503"
         inkscape:connector-curvature="0" /><circle
         id="circle10"
         r="30.5"
         cy="83.5"
         cx="148.5"
         style="fill:#ffffff;stroke:none" /><path
         style="stroke:none;fill:#2b8df2;fill-opacity:1"
         id="path12"
         d="M 148.5,41 C 125.065,41 106,60.065 106,83.5 106,106.935 125.065,126 148.5,126 171.935,126 191,106.935 191,83.5 191,60.065 171.935,41 148.5,41 Z m 0,73 C 131.682,114 118,100.318 118,83.5 118,66.682 131.682,53 148.5,53 165.318,53 179,66.682 179,83.5 179,100.318 165.318,114 148.5,114 Z"
         inkscape:connector-curvature="0" /></g></g></svg>