<?xml version="1.0" encoding="utf-8"?>
<!-- Generator: Adobe Illustrator 22.1.0, SVG Export Plug-In . SVG Version: 6.00 Build 0)  -->
<svg version="1.2" baseProfile="tiny" id="Layer_1" xmlns="http://www.w3.org/2000/svg" xmlns:xlink="http://www.w3.org/1999/xlink"
	 x="0px" y="0px" viewBox="0 0 152.691 235.875" xml:space="preserve">
<g>
	<path d="M76.344,0C34.246,0,0,34.246,0,76.343c0,37.645,26.113,86.993,48.02,121.758c1.41,2.242,4.375,2.914,6.617,1.5
		c2.242-1.41,2.918-4.375,1.504-6.617C17.676,131.933,9.602,95.859,9.602,76.343c0-36.8,29.941-66.742,66.742-66.742
		c36.804,0,66.746,29.938,66.746,66.742c0,59.766-69.836,150.883-70.543,151.797c-1.621,2.098-1.235,5.114,0.863,6.731
		c0.875,0.675,1.906,1.004,2.934,1.004c1.433,0,2.855-0.641,3.801-1.868c2.96-3.832,72.546-94.621,72.546-157.664
		C152.688,34.246,118.441,0,76.344,0L76.344,0z M76.344,0"/>
	<path d="M76.344,52c2.652,0,4.801-2.149,4.801-4.801c0-2.649-2.149-4.801-4.801-4.801c-18.715,0-33.946,15.231-33.946,33.945
		c0,18.719,15.231,33.946,33.946,33.946c18.718,0,33.945-15.227,33.945-33.946c0-7.476-2.383-14.566-6.894-20.507
		c-1.602-2.11-4.614-2.524-6.727-0.922c-2.109,1.605-2.523,4.613-0.922,6.726c3.234,4.258,4.942,9.34,4.942,14.703
		c0,13.422-10.922,24.344-24.344,24.344C62.922,100.687,52,89.765,52,76.343C52,62.921,62.922,52,76.344,52L76.344,52z M76.344,52"
		/>
</g>
</svg>
