<?xml version="1.0" encoding="UTF-8" standalone="no"?>
<!-- Generator: Adobe Illustrator 22.1.0, SVG Export Plug-In . SVG Version: 6.00 Build 0)  -->

<svg
   xmlns:dc="http://purl.org/dc/elements/1.1/"
   xmlns:cc="http://creativecommons.org/ns#"
   xmlns:rdf="http://www.w3.org/1999/02/22-rdf-syntax-ns#"
   xmlns:svg="http://www.w3.org/2000/svg"
   xmlns="http://www.w3.org/2000/svg"
   xmlns:sodipodi="http://sodipodi.sourceforge.net/DTD/sodipodi-0.dtd"
   xmlns:inkscape="http://www.inkscape.org/namespaces/inkscape"
   version="1.1"
   id="Capa_1"
   x="0px"
   y="0px"
   viewBox="-49 141 100 100"
   xml:space="preserve"
   sodipodi:docname="payment-maestro.svg"
   inkscape:version="0.92.1 r15371"
   width="100"
   height="100"><metadata
     id="metadata25"><rdf:RDF><cc:Work
         rdf:about=""><dc:format>image/svg+xml</dc:format><dc:type
           rdf:resource="http://purl.org/dc/dcmitype/StillImage" /><dc:title></dc:title></cc:Work></rdf:RDF></metadata><defs
     id="defs23" /><sodipodi:namedview
     pagecolor="#ffffff"
     bordercolor="#666666"
     borderopacity="1"
     objecttolerance="10"
     gridtolerance="10"
     guidetolerance="10"
     inkscape:pageopacity="0"
     inkscape:pageshadow="2"
     inkscape:window-width="1920"
     inkscape:window-height="1017"
     id="namedview21"
     showgrid="false"
     inkscape:zoom="5.2149125"
     inkscape:cx="47.488591"
     inkscape:cy="22.690084"
     inkscape:window-x="-8"
     inkscape:window-y="-8"
     inkscape:window-maximized="1"
     inkscape:current-layer="Capa_1"
     fit-margin-top="0"
     fit-margin-left="0"
     fit-margin-right="0"
     fit-margin-bottom="0" /><g
     id="g4511"
     transform="matrix(0.1953125,0,0,0.1953125,-39.429687,112.87239)"><path
       id="path2"
       d="m 454.916,294.88 c 4.466,0 8.084,-3.62 8.084,-8.084 v -31.459 c 0,-20.619 -16.775,-37.394 -37.393,-37.394 H -11.607 C -32.225,217.942 -49,234.718 -49,255.336 v 283.326 c 0,20.62 16.775,37.395 37.393,37.395 h 437.212 c 20.619,0 37.393,-16.776 37.393,-37.395 V 313.024 c 0,-4.465 -3.619,-8.084 -8.084,-8.084 -4.465,0 -8.084,3.62 -8.084,8.084 v 225.637 c 0,11.705 -9.522,21.227 -21.225,21.227 H -11.607 c -11.703,0 -21.225,-9.522 -21.225,-21.227 V 255.336 c 0,-11.704 9.522,-21.226 21.225,-21.226 h 437.212 c 11.703,0 21.225,9.522 21.225,21.226 v 31.459 c 0.002,4.465 3.62,8.085 8.086,8.085 z"
       inkscape:connector-curvature="0" /><path
       id="path4"
       d="m 258.432,271.539 c -18.396,0 -36.421,5.729 -51.432,16.213 -15.011,-10.484 -33.034,-16.213 -51.43,-16.213 -49.523,0 -89.812,40.291 -89.812,89.813 0,49.521 40.29,89.809 89.812,89.809 18.398,0 36.422,-5.728 51.43,-16.207 15.009,10.48 33.033,16.207 51.432,16.207 49.522,0 89.81,-40.288 89.81,-89.809 0,-49.522 -40.289,-89.813 -89.81,-89.813 z M 155.57,434.993 c -40.608,0 -73.644,-33.034 -73.644,-73.641 0,-40.607 33.036,-73.645 73.644,-73.645 13.642,0 27.04,3.831 38.58,10.922 -0.061,0.063 -0.117,0.128 -0.178,0.191 -0.905,0.931 -1.789,1.879 -2.649,2.843 -0.068,0.077 -0.138,0.151 -0.206,0.227 -0.863,0.974 -1.698,1.968 -2.515,2.976 -0.136,0.167 -0.272,0.333 -0.405,0.501 -0.789,0.987 -1.557,1.989 -2.301,3.006 -0.127,0.174 -0.252,0.349 -0.378,0.524 -0.755,1.047 -1.491,2.104 -2.199,3.18 -0.056,0.085 -0.11,0.172 -0.166,0.259 -0.695,1.064 -1.365,2.143 -2.012,3.234 -0.068,0.115 -0.139,0.229 -0.207,0.344 -0.645,1.097 -1.26,2.21 -1.857,3.333 -0.106,0.198 -0.211,0.397 -0.316,0.596 -0.578,1.107 -1.133,2.226 -1.662,3.356 -0.091,0.193 -0.178,0.387 -0.266,0.58 -0.539,1.169 -1.058,2.349 -1.546,3.541 -0.03,0.073 -0.057,0.147 -0.086,0.22 -0.476,1.174 -0.925,2.358 -1.351,3.553 -0.055,0.153 -0.112,0.304 -0.166,0.457 -0.417,1.19 -0.805,2.391 -1.173,3.599 -0.068,0.224 -0.136,0.448 -0.203,0.674 -0.355,1.2 -0.686,2.408 -0.99,3.624 -0.051,0.202 -0.097,0.404 -0.147,0.606 -0.308,1.269 -0.596,2.543 -0.848,3.827 -0.009,0.045 -0.016,0.091 -0.025,0.136 -0.247,1.266 -0.462,2.543 -0.655,3.824 -0.028,0.184 -0.058,0.368 -0.085,0.552 -0.181,1.256 -0.333,2.519 -0.461,3.788 -0.024,0.238 -0.047,0.477 -0.07,0.717 -0.119,1.268 -0.213,2.539 -0.278,3.817 -0.011,0.201 -0.016,0.401 -0.025,0.601 -0.059,1.342 -0.098,2.687 -0.098,4.039 0,1.351 0.039,2.696 0.098,4.038 0.009,0.201 0.015,0.401 0.025,0.602 0.065,1.278 0.16,2.55 0.278,3.819 0.023,0.237 0.045,0.474 0.069,0.711 0.129,1.27 0.28,2.535 0.462,3.793 0.026,0.181 0.056,0.361 0.084,0.541 0.194,1.286 0.41,2.566 0.659,3.838 0.009,0.042 0.015,0.084 0.023,0.125 0.253,1.288 0.542,2.565 0.852,3.837 0.048,0.197 0.094,0.396 0.143,0.593 0.305,1.22 0.637,2.432 0.993,3.636 0.065,0.22 0.131,0.439 0.198,0.659 0.369,1.214 0.759,2.42 1.178,3.614 0.051,0.146 0.106,0.29 0.157,0.435 0.43,1.205 0.883,2.402 1.364,3.585 0.027,0.065 0.051,0.132 0.078,0.196 0.49,1.199 1.012,2.383 1.554,3.559 0.086,0.186 0.17,0.374 0.258,0.56 0.532,1.135 1.09,2.258 1.67,3.371 0.101,0.195 0.205,0.388 0.308,0.582 0.598,1.126 1.216,2.243 1.863,3.344 0.066,0.112 0.135,0.223 0.202,0.334 0.65,1.096 1.324,2.18 2.021,3.248 0.054,0.083 0.106,0.167 0.16,0.25 0.708,1.077 1.445,2.135 2.201,3.183 0.126,0.175 0.25,0.349 0.377,0.523 0.744,1.016 1.51,2.018 2.299,3.004 0.136,0.169 0.273,0.337 0.41,0.507 0.815,1.005 1.648,1.996 2.508,2.969 0.072,0.081 0.147,0.161 0.219,0.241 0.855,0.959 1.733,1.9 2.632,2.826 0.064,0.066 0.122,0.135 0.185,0.199 -11.541,7.086 -24.941,10.917 -38.584,10.917 z m 61.982,-33.883 c -0.452,0.703 -0.905,1.403 -1.381,2.091 -0.294,0.425 -0.604,0.841 -0.906,1.26 -0.457,0.632 -0.918,1.261 -1.397,1.879 -0.332,0.429 -0.674,0.85 -1.015,1.272 -0.48,0.592 -0.966,1.178 -1.464,1.756 -0.361,0.418 -0.728,0.832 -1.098,1.243 -0.511,0.566 -1.033,1.124 -1.563,1.676 -0.382,0.398 -0.764,0.793 -1.156,1.184 -0.185,0.185 -0.38,0.362 -0.569,0.545 -0.189,-0.183 -0.384,-0.361 -0.569,-0.547 -0.39,-0.389 -0.773,-0.785 -1.154,-1.181 -0.53,-0.552 -1.052,-1.11 -1.564,-1.677 -0.37,-0.41 -0.736,-0.824 -1.096,-1.241 -0.499,-0.579 -0.987,-1.167 -1.467,-1.76 -0.341,-0.421 -0.682,-0.842 -1.013,-1.27 -0.479,-0.619 -0.941,-1.248 -1.399,-1.881 -0.303,-0.418 -0.611,-0.832 -0.904,-1.257 -0.479,-0.691 -0.935,-1.395 -1.387,-2.101 -0.245,-0.38 -0.5,-0.756 -0.738,-1.141 -0.569,-0.923 -1.111,-1.862 -1.638,-2.807 -0.1,-0.179 -0.21,-0.352 -0.308,-0.533 -0.617,-1.13 -1.202,-2.275 -1.757,-3.435 -0.167,-0.348 -0.316,-0.705 -0.477,-1.056 -0.377,-0.819 -0.749,-1.639 -1.096,-2.472 -0.19,-0.455 -0.361,-0.917 -0.541,-1.375 -0.291,-0.742 -0.579,-1.484 -0.846,-2.236 -0.178,-0.5 -0.342,-1.005 -0.509,-1.509 -0.24,-0.725 -0.473,-1.452 -0.691,-2.185 -0.155,-0.523 -0.301,-1.048 -0.444,-1.574 -0.198,-0.729 -0.387,-1.462 -0.563,-2.198 -0.128,-0.534 -0.251,-1.067 -0.368,-1.604 -0.161,-0.746 -0.306,-1.497 -0.444,-2.25 -0.097,-0.531 -0.196,-1.062 -0.282,-1.596 -0.126,-0.784 -0.231,-1.574 -0.331,-2.364 -0.065,-0.509 -0.138,-1.014 -0.192,-1.525 -0.093,-0.874 -0.158,-1.754 -0.221,-2.634 -0.03,-0.432 -0.074,-0.861 -0.097,-1.295 -0.07,-1.316 -0.111,-2.638 -0.111,-3.964 0,-1.327 0.041,-2.648 0.11,-3.963 0.023,-0.437 0.067,-0.869 0.098,-1.303 0.063,-0.877 0.127,-1.755 0.22,-2.626 0.055,-0.513 0.127,-1.021 0.193,-1.532 0.101,-0.788 0.205,-1.575 0.331,-2.357 0.086,-0.537 0.185,-1.07 0.284,-1.604 0.138,-0.749 0.282,-1.497 0.443,-2.241 0.116,-0.54 0.241,-1.078 0.37,-1.615 0.175,-0.731 0.361,-1.458 0.558,-2.182 0.144,-0.532 0.292,-1.064 0.449,-1.592 0.216,-0.725 0.446,-1.445 0.683,-2.162 0.169,-0.511 0.335,-1.023 0.515,-1.53 0.263,-0.74 0.548,-1.472 0.834,-2.204 0.184,-0.47 0.36,-0.943 0.554,-1.409 0.34,-0.815 0.705,-1.618 1.073,-2.42 0.168,-0.368 0.324,-0.74 0.5,-1.105 0.554,-1.156 1.137,-2.298 1.752,-3.423 0.113,-0.207 0.239,-0.406 0.354,-0.611 0.513,-0.918 1.039,-1.831 1.592,-2.728 0.245,-0.397 0.507,-0.781 0.759,-1.174 0.447,-0.694 0.896,-1.387 1.366,-2.067 0.297,-0.43 0.611,-0.852 0.918,-1.276 0.454,-0.626 0.911,-1.25 1.385,-1.863 0.334,-0.431 0.678,-0.856 1.022,-1.279 0.477,-0.59 0.963,-1.175 1.461,-1.752 0.361,-0.418 0.728,-0.832 1.098,-1.243 0.512,-0.567 1.035,-1.126 1.565,-1.678 0.379,-0.396 0.761,-0.79 1.15,-1.177 0.186,-0.187 0.383,-0.364 0.572,-0.549 0.19,0.184 0.386,0.363 0.573,0.55 0.388,0.387 0.769,0.78 1.147,1.174 0.533,0.555 1.057,1.116 1.57,1.685 0.369,0.409 0.733,0.82 1.092,1.235 0.5,0.58 0.988,1.169 1.47,1.763 0.341,0.42 0.68,0.84 1.011,1.265 0.481,0.621 0.943,1.253 1.402,1.886 0.302,0.416 0.609,0.83 0.901,1.251 0.479,0.691 0.935,1.395 1.388,2.101 0.245,0.382 0.501,0.757 0.738,1.143 0.568,0.926 1.11,1.865 1.638,2.811 0.099,0.178 0.208,0.35 0.306,0.529 0.617,1.13 1.201,2.275 1.757,3.435 0.168,0.351 0.319,0.711 0.482,1.065 0.375,0.816 0.747,1.633 1.092,2.462 0.19,0.456 0.362,0.918 0.542,1.379 0.291,0.742 0.579,1.483 0.846,2.234 0.178,0.5 0.342,1.006 0.509,1.509 0.239,0.724 0.473,1.45 0.69,2.182 0.155,0.524 0.302,1.05 0.445,1.578 0.198,0.729 0.386,1.462 0.563,2.197 0.127,0.532 0.251,1.065 0.366,1.601 0.162,0.748 0.307,1.502 0.445,2.256 0.097,0.529 0.196,1.058 0.281,1.591 0.126,0.786 0.231,1.576 0.332,2.367 0.065,0.508 0.137,1.013 0.192,1.523 0.093,0.873 0.158,1.75 0.221,2.63 0.03,0.434 0.074,0.866 0.098,1.301 0.07,1.316 0.11,2.637 0.11,3.963 0,1.326 -0.041,2.647 -0.11,3.962 -0.023,0.435 -0.067,0.867 -0.098,1.301 -0.063,0.878 -0.127,1.757 -0.22,2.629 -0.055,0.51 -0.127,1.016 -0.192,1.524 -0.101,0.791 -0.206,1.581 -0.332,2.366 -0.085,0.534 -0.184,1.063 -0.281,1.593 -0.138,0.753 -0.284,1.505 -0.445,2.253 -0.115,0.537 -0.239,1.071 -0.368,1.604 -0.176,0.735 -0.363,1.467 -0.562,2.195 -0.143,0.528 -0.29,1.054 -0.445,1.578 -0.217,0.732 -0.451,1.457 -0.69,2.181 -0.167,0.504 -0.331,1.011 -0.509,1.511 -0.266,0.75 -0.554,1.492 -0.845,2.231 -0.181,0.46 -0.354,0.925 -0.543,1.381 -0.344,0.828 -0.715,1.643 -1.09,2.457 -0.164,0.357 -0.315,0.718 -0.484,1.071 -0.556,1.159 -1.139,2.303 -1.756,3.432 -0.102,0.188 -0.217,0.368 -0.32,0.554 -0.524,0.939 -1.061,1.87 -1.625,2.785 -0.241,0.392 -0.498,0.77 -0.745,1.153 z m 40.88,33.883 c -13.868,0 -27.044,-3.745 -38.598,-10.901 0.07,-0.072 0.135,-0.148 0.205,-0.22 0.883,-0.909 1.745,-1.833 2.586,-2.775 0.086,-0.097 0.176,-0.191 0.261,-0.288 0.853,-0.963 1.678,-1.946 2.486,-2.94 0.146,-0.179 0.291,-0.357 0.434,-0.537 0.783,-0.98 1.545,-1.974 2.284,-2.983 0.133,-0.18 0.262,-0.362 0.392,-0.543 0.751,-1.042 1.485,-2.095 2.189,-3.166 0.058,-0.088 0.113,-0.179 0.171,-0.267 0.69,-1.056 1.355,-2.128 1.998,-3.21 0.074,-0.125 0.151,-0.247 0.224,-0.372 0.642,-1.093 1.257,-2.202 1.851,-3.321 0.107,-0.202 0.215,-0.403 0.32,-0.606 0.577,-1.106 1.132,-2.223 1.661,-3.351 0.091,-0.193 0.178,-0.388 0.267,-0.582 0.539,-1.171 1.06,-2.349 1.547,-3.542 0.029,-0.07 0.055,-0.14 0.083,-0.21 0.477,-1.176 0.927,-2.363 1.354,-3.559 0.055,-0.154 0.113,-0.307 0.167,-0.461 0.417,-1.19 0.806,-2.391 1.174,-3.6 0.068,-0.224 0.136,-0.447 0.203,-0.672 0.355,-1.201 0.687,-2.409 0.991,-3.626 0.051,-0.201 0.097,-0.402 0.146,-0.603 0.308,-1.27 0.597,-2.546 0.85,-3.832 0.009,-0.042 0.015,-0.084 0.023,-0.126 0.248,-1.271 0.463,-2.55 0.657,-3.835 0.028,-0.183 0.058,-0.365 0.084,-0.549 0.181,-1.257 0.333,-2.52 0.462,-3.789 0.025,-0.239 0.047,-0.479 0.07,-0.719 0.119,-1.267 0.213,-2.537 0.278,-3.815 0.011,-0.202 0.016,-0.404 0.026,-0.606 0.059,-1.341 0.098,-2.686 0.098,-4.037 0,-1.351 -0.039,-2.696 -0.098,-4.038 -0.009,-0.202 -0.015,-0.404 -0.026,-0.606 -0.065,-1.276 -0.16,-2.546 -0.278,-3.813 -0.023,-0.241 -0.046,-0.483 -0.071,-0.724 -0.128,-1.267 -0.28,-2.528 -0.461,-3.782 -0.027,-0.188 -0.058,-0.373 -0.086,-0.559 -0.193,-1.279 -0.407,-2.552 -0.654,-3.818 -0.009,-0.046 -0.016,-0.093 -0.026,-0.14 -0.252,-1.281 -0.539,-2.551 -0.846,-3.817 -0.051,-0.208 -0.098,-0.416 -0.15,-0.623 -0.303,-1.212 -0.634,-2.414 -0.986,-3.61 -0.068,-0.231 -0.138,-0.46 -0.208,-0.691 -0.365,-1.202 -0.752,-2.396 -1.167,-3.58 -0.058,-0.165 -0.12,-0.328 -0.179,-0.492 -0.421,-1.18 -0.866,-2.352 -1.337,-3.512 -0.033,-0.082 -0.064,-0.164 -0.097,-0.245 -0.485,-1.185 -1.001,-2.354 -1.536,-3.516 -0.094,-0.204 -0.185,-0.407 -0.28,-0.61 -0.526,-1.121 -1.077,-2.229 -1.649,-3.327 -0.111,-0.212 -0.223,-0.423 -0.335,-0.634 -0.591,-1.11 -1.2,-2.211 -1.837,-3.295 -0.08,-0.136 -0.164,-0.269 -0.244,-0.405 -0.635,-1.068 -1.291,-2.123 -1.97,-3.166 -0.064,-0.098 -0.125,-0.198 -0.19,-0.296 -0.701,-1.065 -1.43,-2.112 -2.177,-3.147 -0.135,-0.188 -0.268,-0.375 -0.405,-0.56 -0.737,-1.006 -1.496,-1.997 -2.278,-2.974 -0.144,-0.181 -0.292,-0.36 -0.438,-0.541 -0.807,-0.994 -1.631,-1.975 -2.483,-2.936 -0.086,-0.098 -0.177,-0.193 -0.263,-0.29 -0.842,-0.943 -1.706,-1.869 -2.591,-2.78 -0.068,-0.07 -0.13,-0.143 -0.198,-0.212 11.556,-7.16 24.731,-10.905 38.598,-10.905 40.606,0 73.642,33.037 73.642,73.645 0.002,40.607 -33.034,73.642 -73.64,73.642 z"
       inkscape:connector-curvature="0" /><path
       id="path6"
       d="m 81.207,478.953 c -6.135,0 -12.013,3.256 -15.869,8.753 -3.991,-5.574 -9.73,-8.753 -15.856,-8.753 -3.676,0 -7.734,1.687 -11.223,4.651 l -1.661,-3.074 c -0.094,-0.175 -0.276,-0.284 -0.473,-0.284 H 26 c -0.297,0 -0.539,0.241 -0.539,0.539 v 46.489 c 0,0.298 0.241,0.539 0.539,0.539 h 12.524 c 0.297,0 0.539,-0.241 0.539,-0.539 v -26.681 c 1.393,-5.313 4.776,-8.482 9.061,-8.482 5.316,0 9.48,5.306 9.48,12.081 v 23.082 c 0,0.297 0.241,0.539 0.539,0.539 h 11.689 c 0.298,0 0.539,-0.241 0.539,-0.539 v -23.819 c 0.195,-5.456 3.835,-11.344 9.374,-11.344 5.934,0 9.48,6.142 9.48,12.081 v 23.082 c 0,0.3 0.241,0.54 0.539,0.54 h 11.689 c 0.298,0 0.539,-0.241 0.539,-0.539 v -23.082 c 0,-13.919 -9.324,-25.24 -20.785,-25.24 z"
       inkscape:connector-curvature="0" /><path
       id="path8"
       d="M 158.949,480.247 H 148.93 c -0.249,0 -0.468,0.171 -0.524,0.415 l -0.842,3.568 c -4.266,-3.478 -9.602,-5.384 -15.122,-5.384 -13.475,0 -24.438,11.274 -24.438,25.132 0,13.857 10.963,25.131 24.438,25.131 5.427,0 10.674,-1.842 14.905,-5.211 v 3.377 c 0,0.299 0.242,0.539 0.539,0.539 h 11.063 c 0.298,0 0.539,-0.241 0.539,-0.539 v -46.489 c 0,-0.299 -0.241,-0.539 -0.539,-0.539 z m -16.988,32.318 c -2.082,2.253 -4.869,3.493 -7.849,3.493 -2.99,0 -5.743,-1.212 -7.945,-3.485 -2.133,-2.414 -3.307,-5.467 -3.307,-8.596 0,-3.187 1.202,-6.316 3.291,-8.578 2.219,-2.292 4.971,-3.503 7.962,-3.503 2.98,0 5.768,1.241 7.857,3.503 2.123,2.194 3.293,5.24 3.293,8.578 -0.001,3.286 -1.142,6.255 -3.302,8.588 z"
       inkscape:connector-curvature="0" /><path
       id="path10"
       d="m 190.669,478.63 c -13.474,0 -24.436,11.322 -24.436,25.239 0,13.918 10.962,25.24 24.436,25.24 7.199,0 13.932,-3.217 18.474,-8.829 0.095,-0.116 0.136,-0.267 0.114,-0.416 -0.022,-0.149 -0.104,-0.281 -0.226,-0.367 l -9.811,-6.795 c -0.218,-0.15 -0.511,-0.121 -0.695,0.068 -2.021,2.09 -4.694,3.288 -7.335,3.288 -2.916,0 -5.554,-1.243 -7.633,-3.595 -0.905,-1.02 -1.637,-2.214 -2.225,-3.634 h 32.818 c 0.257,10e-4 0.477,-0.179 0.529,-0.429 0.296,-1.435 0.428,-2.832 0.428,-4.531 0,-13.916 -10.963,-25.239 -24.438,-25.239 z m -9.574,20.925 c 0.618,-1.676 1.464,-3.183 2.457,-4.381 2.081,-2.253 4.794,-3.493 7.64,-3.493 2.835,0 5.579,1.271 7.531,3.488 1.099,1.223 1.954,2.728 2.495,4.386 z"
       inkscape:connector-curvature="0" /><path
       id="path12"
       d="m 244.176,499.154 c -1.025,-0.36 -2.038,-0.675 -3.001,-0.974 -4.212,-1.309 -6.579,-2.157 -6.243,-4.383 0.275,-2.18 1.635,-3.332 3.932,-3.332 2.726,0 6.474,1.658 10.552,4.668 0.121,0.088 0.274,0.123 0.423,0.096 0.149,-0.029 0.278,-0.117 0.357,-0.246 l 6.052,-9.814 c 0.156,-0.252 0.078,-0.583 -0.174,-0.741 -6.063,-3.783 -10.339,-5.583 -18.235,-5.583 -9.409,0 -16.506,6.307 -16.506,14.668 0,9.461 6.585,12.321 15.193,15.074 3.746,1.209 6.201,2.218 6.201,5.095 0,2.177 -1.631,3.475 -4.362,3.475 -2.827,0 -7.478,-1.593 -11.281,-6.085 -0.099,-0.116 -0.242,-0.185 -0.396,-0.191 -0.161,0.01 -0.299,0.057 -0.405,0.166 l -8.347,8.736 c -0.201,0.209 -0.199,0.539 0.002,0.747 5.352,5.532 13.087,8.578 21.781,8.578 9.125,0 17.131,-7.057 17.131,-15.101 0,-6.985 -4.627,-12.402 -12.674,-14.853 z"
       inkscape:connector-curvature="0" /><path
       id="path14"
       d="m 295.546,480.247 h -9.897 v -16.719 c 0,-0.297 -0.241,-0.539 -0.539,-0.539 h -13.253 c -0.297,0 -0.539,0.241 -0.539,0.539 v 16.719 h -8.855 c -0.297,0 -0.539,0.241 -0.539,0.539 v 12.62 c 0,0.297 0.241,0.539 0.539,0.539 h 8.855 v 33.33 c 0,0.299 0.241,0.539 0.539,0.539 h 13.253 c 0.297,0 0.539,-0.241 0.539,-0.539 v -33.33 h 9.897 c 0.298,0 0.539,-0.241 0.539,-0.539 v -12.62 c 0,-0.299 -0.241,-0.539 -0.539,-0.539 z"
       inkscape:connector-curvature="0" /><path
       id="path16"
       d="m 339.033,480.678 c -0.059,-0.136 -0.171,-0.241 -0.312,-0.291 -2.416,-0.868 -5.114,-1.326 -7.801,-1.326 -6.398,0 -11.819,2.144 -15.053,5.916 l -1.555,-4.372 c -0.075,-0.215 -0.279,-0.358 -0.508,-0.358 h -10.122 c -0.297,0 -0.539,0.241 -0.539,0.539 v 46.489 c 0,0.297 0.241,0.539 0.539,0.539 h 13.045 c 0.297,0 0.539,-0.241 0.539,-0.539 L 317.257,501.7 c 0.998,-5.471 5.632,-9.442 11.019,-9.442 1.659,0 3.317,0.37 4.927,1.099 0.131,0.061 0.281,0.063 0.418,0.012 0.135,-0.053 0.244,-0.156 0.3,-0.291 l 5.114,-11.972 c 0.058,-0.137 0.058,-0.291 -0.002,-0.428 z"
       inkscape:connector-curvature="0" /><path
       id="path18"
       d="m 365.983,478.846 c -13.992,0 -25.377,11.274 -25.377,25.132 0,13.857 11.385,25.131 25.377,25.131 14.288,0 25.48,-11.039 25.48,-25.131 0,-13.86 -11.43,-25.132 -25.48,-25.132 z m 8.066,33.817 c -2.251,2.324 -4.929,3.503 -7.962,3.503 -2.969,0 -5.787,-1.27 -7.751,-3.503 -2.255,-2.33 -3.398,-5.253 -3.398,-8.686 0,-3.365 1.204,-6.408 3.423,-8.605 1.914,-2.278 4.732,-3.584 7.726,-3.584 3.064,0 5.741,1.213 7.954,3.602 2.061,2.231 3.196,5.243 3.196,8.479 -0.001,3.343 -1.139,6.472 -3.188,8.794 z"
       inkscape:connector-curvature="0" /></g></svg>