<?xml version="1.0" encoding="UTF-8" standalone="no"?>
<!-- Generator: Adobe Illustrator 22.1.0, SVG Export Plug-In . SVG Version: 6.00 Build 0)  -->

<svg
   xmlns:dc="http://purl.org/dc/elements/1.1/"
   xmlns:cc="http://creativecommons.org/ns#"
   xmlns:rdf="http://www.w3.org/1999/02/22-rdf-syntax-ns#"
   xmlns:svg="http://www.w3.org/2000/svg"
   xmlns="http://www.w3.org/2000/svg"
   xmlns:sodipodi="http://sodipodi.sourceforge.net/DTD/sodipodi-0.dtd"
   xmlns:inkscape="http://www.inkscape.org/namespaces/inkscape"
   version="1.1"
   id="Capa_1"
   x="0px"
   y="0px"
   viewBox="-49 217.943 100 99.999996"
   xml:space="preserve"
   sodipodi:docname="payment-visa.svg"
   width="100"
   height="100"
   inkscape:version="0.92.1 r15371"><metadata
     id="metadata15"><rdf:RDF><cc:Work
         rdf:about=""><dc:format>image/svg+xml</dc:format><dc:type
           rdf:resource="http://purl.org/dc/dcmitype/StillImage" /><dc:title></dc:title></cc:Work></rdf:RDF></metadata><defs
     id="defs13" /><sodipodi:namedview
     pagecolor="#ffffff"
     bordercolor="#666666"
     borderopacity="1"
     objecttolerance="10"
     gridtolerance="10"
     guidetolerance="10"
     inkscape:pageopacity="0"
     inkscape:pageshadow="2"
     inkscape:window-width="1920"
     inkscape:window-height="1017"
     id="namedview11"
     showgrid="false"
     fit-margin-top="0"
     fit-margin-left="0"
     fit-margin-right="0"
     fit-margin-bottom="0"
     inkscape:zoom="4.484375"
     inkscape:cx="75.967254"
     inkscape:cy="31.518408"
     inkscape:window-x="-8"
     inkscape:window-y="-8"
     inkscape:window-maximized="1"
     inkscape:current-layer="Capa_1" /><g
     id="g4496"
     transform="matrix(0.1953125,0,0,0.1953125,-39.429688,191.43187)"><path
       id="path2"
       d="m 454.915,294.88 c 4.467,0 8.085,-3.619 8.085,-8.084 v -31.459 c 0,-20.619 -16.775,-37.394 -37.395,-37.394 h -437.21 c -20.62,0 -37.395,16.775 -37.395,37.394 v 283.325 c 0,20.62 16.775,37.395 37.395,37.395 h 437.209 c 20.62,0 37.395,-16.776 37.395,-37.395 V 313.026 c 0,-4.465 -3.618,-8.084 -8.084,-8.084 -4.466,0 -8.084,3.62 -8.084,8.084 V 498.8 H -32.832 V 294.88 Z M -32.832,255.337 c 0,-11.704 9.522,-21.226 21.227,-21.226 h 437.209 c 11.705,0 21.227,9.522 21.227,21.226 v 23.375 H -32.832 Z m 479.664,259.631 v 23.693 c 0,11.705 -9.522,21.227 -21.227,21.227 h -437.21 c -11.705,0 -21.227,-9.522 -21.227,-21.227 v -23.693 z"
       inkscape:connector-curvature="0" /><path
       id="path4"
       d="m 198.995,328.737 c -1.536,-1.821 -3.796,-2.872 -6.179,-2.872 h -34.488 c -2.956,0 -5.589,1.599 -7,4.038 -0.061,-0.103 -0.113,-0.212 -0.18,-0.315 -1.496,-2.271 -4.032,-3.638 -6.752,-3.638 h -36.501 c -3.328,0 -6.315,2.039 -7.528,5.138 L 76.145,392.98 65.407,341.471 c -0.026,-0.125 -0.055,-0.249 -0.087,-0.372 -1.836,-7.107 -7.231,-15.711 -22.504,-16.352 -0.112,-0.004 -0.225,-0.006 -0.338,-0.006 h -53.379 c -3.893,0 -7.234,2.774 -7.947,6.602 l -0.475,2.551 c -0.787,4.224 1.867,8.327 6.043,9.339 10.152,2.461 19.59,5.898 28.17,10.187 -0.216,1.205 -0.163,2.467 0.196,3.694 L 45.93,462.538 c 1.008,3.446 4.169,5.814 7.759,5.814 0.003,0 0.006,0 0.01,0 l 36.469,-0.042 c 3.227,-0.004 6.143,-1.926 7.418,-4.891 L 148.09,345.922 128.82,458.995 c -0.4,2.348 0.255,4.753 1.791,6.573 1.536,1.819 3.796,2.869 6.177,2.869 h 34.431 c 3.94,0 7.305,-2.84 7.969,-6.723 l 21.597,-126.403 c 0.401,-2.349 -0.253,-4.753 -1.79,-6.574 z M 42.299,340.91 v 0 c 6.153,0.289 6.83,2.175 7.321,4.052 l 3.25,15.591 C 45.113,352.999 36.051,346.396 25.886,340.91 Z M 84.828,452.148 59.742,452.176 37.688,376.8 c 12.059,11.415 21.261,24.052 25.218,33.117 l 3.455,12.49 c 0.928,3.353 3.899,5.738 7.375,5.918 3.472,0.18 6.676,-1.885 7.945,-5.128 l 31.731,-81.079 h 18.709 z m 79.572,0.121 h -18.032 l 18.783,-110.236 h 18.083 z"
       inkscape:connector-curvature="0" /><path
       id="path6"
       d="M 420.205,458.059 392.432,332.334 c -0.818,-3.704 -4.101,-6.34 -7.893,-6.34 h -26.607 c -4.618,0 -18.672,0 -25.435,15.286 l -33.29,75.362 c -0.845,-16.501 -11.834,-29.368 -33.527,-39.267 -4.477,-2.167 -12.429,-6.022 -14.455,-8.29 0.99,-0.939 4.271,-2.826 11.405,-2.826 0.041,0 0.083,-0.001 0.124,-0.001 10.163,-0.147 17.358,2.155 22.471,4.193 l 2.933,1.345 c 2.284,1.048 4.922,0.973 7.145,-0.2 2.222,-1.173 3.77,-3.312 4.194,-5.788 l 4.674,-27.384 c 0.652,-3.825 -1.505,-7.575 -5.142,-8.934 -7.072,-2.642 -18.662,-5.789 -33.716,-5.789 -38.786,0 -66.055,20.444 -66.313,49.692 -0.301,25.473 26.181,37.747 34.9,41.789 11.678,5.375 12.972,7.63 13.113,8.022 0,10e-4 0.011,0.051 0.008,0.213 -0.017,1.741 -5.277,4.326 -12.508,4.326 -12.799,0 -19.124,-1.755 -29.21,-5.951 l -4.274,-1.963 c -2.282,-1.048 -4.925,-0.974 -7.146,0.196 -2.223,1.173 -3.773,3.311 -4.196,5.788 l -4.84,28.325 c -0.626,3.664 1.326,7.282 4.732,8.77 9.985,4.363 26.288,7.264 41.536,7.391 0.023,0 0.045,0 0.068,0 19.474,0 36.143,-4.586 48.203,-13.262 1.054,-0.758 2.054,-1.558 3.03,-2.375 l -1.091,2.469 c -1.105,2.5 -0.872,5.39 0.62,7.679 1.493,2.291 4.04,3.671 6.773,3.671 h 36.211 c 3.363,0 6.375,-2.083 7.563,-5.228 0.042,-0.112 3.037,-8.039 5.215,-13.759 3.775,0.004 8.951,0.01 14.3,0.016 6.376,0.006 13,0.014 17.807,0.018 1.254,5.65 2.737,12.484 2.759,12.583 0.806,3.718 4.096,6.369 7.9,6.369 h 31.97 c 0.005,0 0.014,0 0.02,0 4.466,0 8.084,-3.618 8.084,-8.084 0,-0.813 -0.119,-1.596 -0.342,-2.337 z M 231.214,454.13 c -11.338,-0.098 -21.985,-1.897 -29.281,-3.989 l 1.965,-11.503 c 9.408,3.565 17.411,5.273 30.615,5.273 16.762,0 28.553,-8.36 28.675,-20.288 0.178,-11.699 -10.554,-17.616 -22.506,-23.119 -17.768,-8.236 -25.637,-16.537 -25.514,-26.943 0.175,-19.836 20.796,-33.691 50.145,-33.691 8.934,0 16.371,1.346 21.736,2.77 l -1.817,10.65 c -5.83,-1.826 -13.228,-3.335 -22.662,-3.198 -19.02,0.022 -27.709,9.786 -27.748,18.881 -0.128,11.371 11.009,16.759 23.9,22.998 0.057,0.027 0.114,0.054 0.17,0.08 21.584,9.827 24.275,19.542 24.207,26.901 -0.213,21.691 -20.094,35.169 -51.885,35.178 z m 155.768,-1.817 c -0.988,-4.514 -2.242,-10.193 -2.838,-12.719 -0.861,-3.65 -4.119,-6.228 -7.869,-6.228 -2.659,0 -13.792,-0.013 -24.251,-0.023 -9.275,-0.011 -18.023,-0.021 -19.874,-0.021 -3.328,0 -6.314,2.038 -7.527,5.136 -0.849,2.169 -3.435,8.984 -5.279,13.855 h -18.216 l 46.158,-104.495 c 1.694,-3.831 3.721,-5.655 10.647,-5.655 h 20.112 l 24.331,110.15 z"
       inkscape:connector-curvature="0" /><path
       id="path8"
       d="m 378.548,413.807 c -1.384,-6.313 -7.952,-36.476 -7.953,-36.477 l -2.337,-10.901 c -0.755,-3.525 -3.752,-6.122 -7.348,-6.37 -3.602,-0.242 -6.922,1.915 -8.154,5.302 -1.057,2.911 -2.663,7.061 -3.623,9.54 -0.316,0.818 -0.622,1.61 -0.872,2.389 l -0.032,-0.013 c -0.109,0.28 -10.881,28.138 -13.698,35.304 -0.978,2.488 -0.662,5.299 0.843,7.51 1.509,2.209 4.01,3.532 6.683,3.532 h 28.595 c 2.448,0 4.764,-1.109 6.299,-3.017 1.535,-1.907 2.122,-4.408 1.597,-6.799 z m -24.666,-6.353 c 1.392,-3.587 2.908,-7.498 4.309,-11.115 0.813,3.733 1.664,7.641 2.422,11.115 z"
       inkscape:connector-curvature="0" /></g></svg>