<?xml version="1.0" encoding="UTF-8" standalone="no"?>
<!-- Generator: Adobe Illustrator 22.1.0, SVG Export Plug-In . SVG Version: 6.00 Build 0)  -->

<svg
   xmlns:dc="http://purl.org/dc/elements/1.1/"
   xmlns:cc="http://creativecommons.org/ns#"
   xmlns:rdf="http://www.w3.org/1999/02/22-rdf-syntax-ns#"
   xmlns:svg="http://www.w3.org/2000/svg"
   xmlns="http://www.w3.org/2000/svg"
   xmlns:sodipodi="http://sodipodi.sourceforge.net/DTD/sodipodi-0.dtd"
   xmlns:inkscape="http://www.inkscape.org/namespaces/inkscape"
   version="1.1"
   id="Layer_1"
   x="0px"
   y="0px"
   viewBox="0 0 584.99707 948.39935"
   xml:space="preserve"
   sodipodi:docname="social-ok.svg"
   width="584.99707"
   height="948.39935"
   inkscape:version="0.92.1 r15371"><metadata
     id="metadata21"><rdf:RDF><cc:Work
         rdf:about=""><dc:format>image/svg+xml</dc:format><dc:type
           rdf:resource="http://purl.org/dc/dcmitype/StillImage" /><dc:title></dc:title></cc:Work></rdf:RDF></metadata><defs
     id="defs19" /><sodipodi:namedview
     pagecolor="#ffffff"
     bordercolor="#666666"
     borderopacity="1"
     objecttolerance="10"
     gridtolerance="10"
     guidetolerance="10"
     inkscape:pageopacity="0"
     inkscape:pageshadow="2"
     inkscape:window-width="1920"
     inkscape:window-height="1017"
     id="namedview17"
     showgrid="false"
     fit-margin-top="0"
     fit-margin-left="0"
     fit-margin-right="0"
     fit-margin-bottom="0"
     inkscape:zoom="0.32328767"
     inkscape:cx="82.623323"
     inkscape:cy="373.25726"
     inkscape:window-x="-8"
     inkscape:window-y="-8"
     inkscape:window-maximized="1"
     inkscape:current-layer="Layer_1" /><path
     style="fill:#020202;stroke-width:1.33333325"
     d="m 101.81541,946.08759 c -14.361303,-4.19088 -24.580503,-10.40952 -36.131003,-21.98643 -11.657,-11.68376 -17.2098,-21.25188 -21.0943,-36.34817 -4.6338,-18.00816 -0.9705,-39.5785 9.3646,-55.14087 2.6785,-4.03334 39.011,-41.56331 80.738803,-83.39993 l 75.86873,-76.06659 -10.32783,-1.73539 c -36.65303,-6.1588 -81.8766,-21.23649 -110.629303,-36.8842 -26.6131,-14.48328 -61.1632,-40.34572 -72.3216,-54.13622 -21.3144002,-26.34203 -22.9591002,-56.50776 -4.6879,-85.97878 17.6418,-28.45583 47.6056,-40.72162 79.5312,-32.55641 12.262103,3.13611 21.546703,7.72528 40.216203,19.87804 47.64757,31.01573 102.08159,46.87948 160.85975,46.87948 59.32779,0 112.47027,-15.70079 159.86778,-47.23244 18.2556,-12.14472 26.22806,-16.06246 39.69606,-19.507 25.9433,-6.63517 50.08062,-0.0296 68.5764,18.76709 18.89033,19.19766 27.78089,48.15036 21.81683,71.04795 -3.49603,13.42216 -8.25258,20.83053 -22.51282,35.064 -42.61215,42.53209 -102.64086,71.39447 -175.84462,84.54779 l -9.01298,1.61946 75.73108,76.28384 c 41.65209,41.95612 77.9337,79.60224 80.62579,83.65805 7.32131,11.03001 11.66911,25.28193 11.66911,38.25084 0,35.30436 -27.67069,68.00685 -64,75.6381 -17.79775,3.73856 -35.81725,-0.0215 -52,-10.85042 -5.59245,-3.7423 -31.0417,-28.21354 -71.74528,-68.98812 l -63.0786,-63.18865 -64.25473,64.30348 c -35.61243,35.63943 -67.52363,66.46097 -71.58804,69.1435 -15.90314,10.49612 -37.82063,14.02853 -55.33333,8.918 z m 32.8299,-36.14861 c 4.02123,-1.99859 26.8174,-23.88954 73.2878,-70.3776 37.09808,-37.11217 69.64359,-68.6145 72.32335,-70.00517 7.32334,-3.80048 14.58025,-4.33624 21.90309,-1.61704 5.41174,2.00955 16.21401,12.20451 74.98918,70.77323 75.50857,75.24336 74.28308,74.23304 90.04359,74.23304 20.75914,0 41.95242,-21.0836 41.95535,-41.73821 0.003,-14.91562 1.55129,-13.13369 -101.94461,-117.26178 -52.11501,-52.43333 -96.72215,-97.85142 -99.12699,-100.92909 l -4.37246,-5.59577 4.38923,-0.73982 c 2.41407,-0.4069 14.28921,-1.94373 26.38921,-3.41519 45.54508,-5.53861 82.2156,-13.40184 108.66668,-23.3013 17.19015,-6.43351 43.80967,-19.93916 58.09786,-29.47645 24.71235,-16.49539 45.33085,-36.33372 47.9834,-46.16778 4.143,-15.35978 -5.82266,-37.02216 -21.17943,-46.03777 -5.41461,-3.1788 -7.63892,-3.65621 -16.90184,-3.62779 -13.03437,0.04 -18.2434,2.23944 -41.62908,17.57723 -95.76984,62.81185 -222.81621,68.86608 -327.03757,15.58453 -7.69996,-3.9365 -21.49996,-11.98112 -30.66666,-17.87692 -19.407703,-12.48261 -30.895303,-16.7562 -41.969103,-15.61328 -13.3907,1.38206 -24.3788,10.10947 -31.036,24.65075 -8.862,19.35703 -3.7485,33.29053 19.1113,52.07596 53.599303,44.04618 111.868193,64.81788 206.560453,73.63465 9.53333,0.88766 17.5687,1.81922 17.8564,2.07015 1.42916,1.24659 -20.03736,23.50331 -105.31133,109.18789 -62.98342,63.28676 -93.894323,95.26489 -96.018023,99.33333 -4.4527,8.53041 -4.4437,23.5024 0.019,32 11.6241,22.1319 34.892903,31.96606 53.616803,22.6602 z M 271.81539,493.9288 C 219.45688,489.26747 167.93382,466.86146 128.48211,431.59694 40.409107,352.87163 20.290507,223.49501 80.272607,121.57669 141.04572,18.314334 269.06592,-26.596086 381.23113,15.998244 c 62.9287,23.89694 114.74485,74.5936 140.38353,137.350516 35.21591,86.19957 20.52386,182.11657 -38.70955,252.71514 -30.77564,36.68058 -71.89709,63.757 -118.07112,77.7439 -28.45064,8.6182 -65.10326,12.60623 -93.0186,10.121 z m 64.66666,-34.5913 c 43.51816,-9.4251 78.91545,-28.70444 110.06188,-59.94583 30.72435,-30.81803 49.79625,-65.53684 58.88486,-107.195 2.57247,-11.79105 2.96376,-17.54529 2.96376,-43.58454 0,-26.08739 -0.38868,-31.78224 -2.98023,-43.66538 -6.52514,-29.91999 -19.31609,-59.47243 -35.92482,-83.00129 -11.24352,-15.92821 -35.98344,-40.730216 -51.67211,-51.801786 -13.87066,-9.7886 -41.91762,-23.92223 -57.24714,-28.84839 -24.08929,-7.74113 -35.12921,-9.28205 -66.75286,-9.31721 -23.18605,-0.0258 -31.70841,0.46801 -40.66667,2.35621 -87.44329,18.43106 -151.77261,81.083146 -171.413713,166.944516 -5.2518,22.95803 -6.1316,57.96133 -2.0579,81.87111 14.0033,82.18959 75.012913,150.04691 155.471613,172.92161 19.98712,5.68242 33.60291,7.15779 61.33333,6.64592 20.95834,-0.38686 29.52084,-1.11038 40,-3.37994 z M 276.2178,375.29052 c -43.77614,-6.18872 -82.82161,-35.02442 -100.6415,-74.32534 -7.66459,-16.90391 -10.78883,-32.10805 -10.89482,-53.01972 -0.104,-20.52765 2.31071,-33.17019 9.80839,-51.35228 10.8282,-26.25865 34.42447,-51.30314 60.65885,-64.3818 58.60825,-29.21802 129.26351,-10.53306 165.3707,43.7327 15.06876,22.64696 21.16255,43.44323 21.09805,72.00138 -0.0359,15.90793 -0.56726,20.63719 -3.5953,32 -14.75067,55.35241 -62.58589,93.75549 -119.54012,95.96924 -7.69999,0.29929 -17.7189,0.0184 -22.26425,-0.62418 z m 40.93092,-32.85978 c 32.93803,-7.31501 61.82921,-35.62177 70.85114,-69.41797 3.52819,-13.2166 3.83288,-35.64083 0.66341,-48.82604 -7.7998,-32.44789 -31.45214,-58.33876 -63.76848,-69.80377 -14.1016,-5.00288 -39.95264,-5.92375 -55.55247,-1.97888 -35.70637,9.02938 -62.83929,36.13826 -71.60478,71.54138 -2.98437,12.05364 -3.0296,34.16975 -0.0949,46.4254 4.65637,19.44587 16.68393,39.13321 31.37862,51.36227 25.02125,20.8229 55.41797,27.96186 88.1275,20.69761 z"
     id="path4502"
     inkscape:connector-curvature="0" /></svg>