<?xml version="1.0" encoding="UTF-8" standalone="no"?>
<!-- Generator: Adobe Illustrator 22.1.0, SVG Export Plug-In . SVG Version: 6.00 Build 0)  -->

<svg
   xmlns:dc="http://purl.org/dc/elements/1.1/"
   xmlns:cc="http://creativecommons.org/ns#"
   xmlns:rdf="http://www.w3.org/1999/02/22-rdf-syntax-ns#"
   xmlns:svg="http://www.w3.org/2000/svg"
   xmlns="http://www.w3.org/2000/svg"
   xmlns:sodipodi="http://sodipodi.sourceforge.net/DTD/sodipodi-0.dtd"
   xmlns:inkscape="http://www.inkscape.org/namespaces/inkscape"
   version="1.2"
   id="Layer_1"
   x="0px"
   y="0px"
   viewBox="0 0 682.64246 451.15454"
   xml:space="preserve"
   sodipodi:docname="social-gp.svg"
   width="682.64246"
   height="451.15454"
   inkscape:version="0.92.1 r15371"><metadata
     id="metadata13"><rdf:RDF><cc:Work
         rdf:about=""><dc:format>image/svg+xml</dc:format><dc:type
           rdf:resource="http://purl.org/dc/dcmitype/StillImage" /><dc:title></dc:title></cc:Work></rdf:RDF></metadata><defs
     id="defs11" /><sodipodi:namedview
     pagecolor="#ffffff"
     bordercolor="#666666"
     borderopacity="1"
     objecttolerance="10"
     gridtolerance="10"
     guidetolerance="10"
     inkscape:pageopacity="0"
     inkscape:pageshadow="2"
     inkscape:window-width="1920"
     inkscape:window-height="1017"
     id="namedview9"
     showgrid="false"
     fit-margin-top="0"
     fit-margin-left="0"
     fit-margin-right="0"
     fit-margin-bottom="0"
     inkscape:zoom="1.1919192"
     inkscape:cx="354.39607"
     inkscape:cy="143.50783"
     inkscape:window-x="-8"
     inkscape:window-y="-8"
     inkscape:window-maximized="1"
     inkscape:current-layer="Layer_1" /><path
     style="fill:#030303;stroke-width:1.33333337"
     d="M 193.21372,449.51965 C 144.48342,441.6145 102.07182,420.95492 68.994223,389.00972 23.587023,345.15693 0.08452309,289.51206 2.2308661e-4,225.6585 -0.08377691,161.98364 23.555123,105.87018 68.932123,62.030346 99.795023,32.21293 136.94462,12.79822 181.30912,3.3011003 c 18.6962,-4.00230004 65.66875,-4.46604 84.84759,-0.83766 32.03554,6.06069 65.0534,20.9666897 97.15241,43.8597097 17.68077,12.609926 21.0264,16.995406 21.76048,28.523786 0.90467,14.20768 0.27285,15.13187 -32.58715,47.667324 -16.46449,16.30188 -32.05058,30.76761 -34.63577,32.14608 -6.23948,3.32697 -15.02999,4.19569 -21.37945,2.11278 -2.83696,-0.93064 -10.25811,-5.11348 -16.49144,-9.2952 -15.12555,-10.14718 -20.98839,-13.00374 -32.98786,-16.07269 -28.98241,-7.41243 -61.48461,1.19162 -84.30131,22.31639 -25.6923,23.78714 -35.9828,60.62434 -27.311,97.76576 5.8222,24.93611 24.8483,48.7713 48.1838,60.36274 16.9206,8.405 28.4618,10.77226 48.85573,10.02108 13.02844,-0.4799 18.15512,-1.28084 26.00677,-4.06306 12.51611,-4.43505 22.67265,-10.5883 31.34053,-18.98742 l 6.88,-6.66667 -37.33333,-0.66667 -37.3333,-0.66666 -6.3632,-3.74038 c -3.4998,-2.0572 -7.9998,-6.21192 -10,-9.23272 l -3.6368,-5.49234 -0.4175,-38.76729 c -0.458,-42.54045 -0.035,-45.88163 6.7995,-53.66536 8.9598,-10.20461 3.2106,-9.70649 112.40826,-9.73931 l 97.45695,-0.0293 5.77149,3.05204 c 13.23508,6.99888 17.21301,17.65461 18.27295,48.94796 1.59832,47.18829 -4.85003,81.50751 -21.67035,115.33334 -28.14315,56.59615 -80.19653,95.67309 -146.62133,110.06991 -17.24867,3.73847 -62.96587,4.84929 -80.76207,1.96236 z m 51.89512,-26.06121 c 27.25312,-2.41226 49.29075,-8.51996 72.20028,-20.01024 41.13179,-20.62964 73.59055,-57.90647 87.95624,-101.01215 7.05885,-21.1808 8.53693,-32.536 8.62783,-66.28201 0.0455,-16.86666 -0.37987,-32.3208 -0.94511,-34.34252 l -1.02771,-3.67584 -91.63896,0.34251 -91.63896,0.34252 v 32 32.00001 l 49.77736,0.66666 49.77736,0.66667 3.88931,4.35437 c 6.36263,7.12343 4.91955,13.70612 -6.79132,30.97896 -15.57683,22.97492 -36.35884,38.04572 -63.60161,46.12294 -14.50878,4.3017 -37.95023,5.73245 -53.31393,3.25402 -61.3103,-9.89042 -103.2318,-59.6313 -103.4198,-122.7103 -0.091,-30.37026 7.9446,-54.91249 25.6875,-78.45913 15.0645,-19.99205 39.7114,-36.25613 65.3285,-43.10905 16.0572,-4.29554 44.08222,-4.34423 58.87553,-0.1023 14.61488,4.19078 23.80597,8.55284 37.22642,17.66753 6.48095,4.40162 12.26492,8.00296 12.85328,8.00296 0.58836,0 12.98775,-11.9292 27.55422,-26.50933 L 358.96973,77.135386 344.47276,66.856806 C 329.72407,56.399746 299.13597,40.46179 284.64245,35.68217 c -16.2215,-5.34947 -27.72206,-7.04766 -52.66666,-7.77683 -21.06237,-0.6157 -27.00457,-0.3206 -40.66667,2.01956 -40.917,7.00863 -76.6282,25.495656 -106.014197,54.881626 -27.1869,27.186894 -44.3671,58.725134 -53.3924,98.014184 -3.5299,15.36639 -4.9589,52.05815 -2.7002,69.33334 12.1314,92.78435 85.781597,162.88245 179.950397,171.27131 16.84841,1.5009 19.34699,1.5032 35.95612,0.0331 z m 288.72651,-84.15416 c -6.93126,-1.5586 -16.15206,-9.38014 -19.34472,-16.40915 -1.96847,-4.33379 -2.4621,-8.78389 -2.48556,-22.40775 l -0.0293,-17 -15.66667,-0.008 c -19.13771,-0.009 -24.29268,-1.33781 -31.70789,-8.17292 -9.1594,-8.44228 -9.95878,-12.38768 -9.95878,-49.15242 0,-36.76473 0.79938,-40.71013 9.95878,-49.15297 7.41521,-6.83511 12.57018,-8.16384 31.70789,-8.17292 l 15.66667,-0.007 v -16.70949 c 0,-22.55793 3.28765,-29.87076 16.66666,-37.07209 4.92739,-2.6522 7.63706,-2.90487 35.60002,-3.31959 33.88702,-0.50259 42.04794,0.5376 50.12554,6.38898 8.86892,6.42461 11.51131,13.78042 12.06443,33.58452 l 0.47124,16.87232 17.64372,0.46102 c 16.91723,0.44201 17.91137,0.62654 24.14376,4.48158 4.73013,2.92582 7.51449,5.96247 10.22567,11.15226 l 3.72562,7.13166 v 34.36216 34.36217 l -3.72562,7.13167 c -2.70954,5.18664 -5.4973,8.2282 -10.22166,11.15225 -6.23762,3.86067 -7.19794,4.03785 -24.14306,4.45479 l -17.64706,0.4342 -0.47192,16.89913 c -0.40509,14.50575 -0.92084,17.81308 -3.64157,23.35228 -3.86273,7.8642 -11.29024,13.5224 -20.28225,15.45085 -8.02456,1.72096 -60.93175,1.65386 -68.67396,-0.0871 z m 64.8071,-51.45731 0.66667,-24.30709 3.69361,-3.69291 3.69363,-3.69292 23.97304,-0.41749 23.97305,-0.41751 v -29.16501 -29.165 l -23.97305,-0.4175 -23.97304,-0.4175 -3.69363,-3.69292 -3.69361,-3.6929 -0.66667,-24.3071 -0.66666,-24.30707 h -28.66667 -28.66667 l -0.67505,23.33333 c -0.44016,15.21428 -1.26271,24.36657 -2.36389,26.30277 -3.16262,5.56075 -6.5659,6.33356 -30.96106,7.03056 l -23.33333,0.66667 v 28.66666 28.66668 l 23.39904,0.66666 c 26.60356,0.75798 29.46219,1.68398 31.86071,10.32072 0.76562,2.75694 1.3954,14.06262 1.39948,25.12372 0.004,11.06112 0.41905,20.52272 0.92212,21.0258 0.50308,0.50308 13.55308,0.75308 29,0.55556 l 28.08532,-0.35913 z"
     id="path4501"
     inkscape:connector-curvature="0" /></svg>