<?xml version="1.0" encoding="UTF-8" standalone="no"?>
<!-- Generator: Adobe Illustrator 22.1.0, SVG Export Plug-In . SVG Version: 6.00 Build 0)  -->

<svg
   xmlns:dc="http://purl.org/dc/elements/1.1/"
   xmlns:cc="http://creativecommons.org/ns#"
   xmlns:rdf="http://www.w3.org/1999/02/22-rdf-syntax-ns#"
   xmlns:svg="http://www.w3.org/2000/svg"
   xmlns="http://www.w3.org/2000/svg"
   xmlns:sodipodi="http://sodipodi.sourceforge.net/DTD/sodipodi-0.dtd"
   xmlns:inkscape="http://www.inkscape.org/namespaces/inkscape"
   version="1.1"
   id="Layer_1"
   x="0px"
   y="0px"
   viewBox="0 0 99.999946 100"
   xml:space="preserve"
   sodipodi:docname="social-vk.svg"
   width="99.999947"
   height="100"
   inkscape:version="0.92.1 r15371"><metadata
     id="metadata33"><rdf:RDF><cc:Work
         rdf:about=""><dc:format>image/svg+xml</dc:format><dc:type
           rdf:resource="http://purl.org/dc/dcmitype/StillImage" /><dc:title></dc:title></cc:Work></rdf:RDF></metadata><defs
     id="defs31" /><sodipodi:namedview
     pagecolor="#ffffff"
     bordercolor="#666666"
     borderopacity="1"
     objecttolerance="10"
     gridtolerance="10"
     guidetolerance="10"
     inkscape:pageopacity="0"
     inkscape:pageshadow="2"
     inkscape:window-width="1920"
     inkscape:window-height="1017"
     id="namedview29"
     showgrid="false"
     fit-margin-top="0"
     fit-margin-left="0"
     fit-margin-right="0"
     fit-margin-bottom="0"
     inkscape:zoom="3.3712566"
     inkscape:cx="12.414179"
     inkscape:cy="5.9331826"
     inkscape:window-x="-8"
     inkscape:window-y="-8"
     inkscape:window-maximized="1"
     inkscape:current-layer="Layer_1" /><path
     style="fill:#000000;stroke-width:0.19543038"
     d="M 45.007044,79.697447 C 37.17481,78.502827 30.71954,75.262907 24.808568,69.559787 17.654294,62.657107 9.5253821,49.733137 1.8148242,33.002577 c -1.46197113,-3.17222 -1.7241825,-3.89824 -1.79984484,-4.98348 -0.11544805,-1.65588 0.43269165,-2.76751 1.77442324,-3.59853 0.8765814,-0.54293 1.0710161,-0.57778 4.1865789,-0.75054 1.7970174,-0.0996 5.6857565,-0.1304 8.6416405,-0.0683 l 5.374335,0.11284 1.261634,0.6377 c 1.64333,0.83063 2.184433,1.56699 3.712234,5.05171 2.462716,5.6171 4.528176,9.43117 7.50504,13.85873 1.788935,2.66075 3.864435,5.01422 4.225283,4.7912 0.107467,-0.0664 0.328821,-0.57969 0.491883,-1.14061 0.903358,-3.10745 0.899767,-11.90517 -0.0062,-15.11137 -0.34021,-1.20402 -1.291262,-2.13589 -2.381895,-2.33384 -0.859166,-0.15595 -2.027571,-0.70923 -2.370625,-1.12258 -0.440334,-0.53057 -0.619211,-1.53502 -0.411048,-2.30811 0.276788,-1.02789 1.886494,-2.71102 3.353512,-3.50645 l 1.231724,-0.66786 h 9.576084 9.576083 l 1.004097,0.52962 c 0.552257,0.29129 1.323743,0.90305 1.714418,1.35947 1.347253,1.57397 1.353482,1.62871 1.473423,12.96362 0.08678,8.20121 0.160731,10.26609 0.3832,10.69981 0.1516,0.29559 0.335534,0.53743 0.408732,0.53743 0.277345,0 2.527545,-2.51655 3.844414,-4.29947 2.624855,-3.55381 5.804531,-9.37356 7.794579,-14.26641 1.546797,-3.80304 2.087285,-4.56553 3.797423,-5.35711 0.854929,-0.39573 1.162761,-0.40809 10.164573,-0.40809 10.347862,0 10.792447,0.048 12.244206,1.32269 1.947469,1.70989 1.890339,4.07264 -0.204293,8.44883 -1.303882,2.72412 -3.299368,5.67678 -8.712433,12.89152 -4.72426,6.29668 -5.275931,7.13696 -5.279434,8.04151 -0.0032,0.84556 0.635305,1.59188 4.579593,5.35235 6.992724,6.66684 10.344917,10.98957 10.880626,14.03081 0.41903,2.3788 -0.58764,4.72623 -2.466454,5.75156 l -0.977142,0.53326 -8.997605,0.005 c -10.110297,0.005 -10.147204,0.001 -12.84366,-1.40175 -1.880734,-0.97846 -3.65639,-2.61378 -7.451643,-6.86266 -2.490344,-2.788 -3.779555,-3.97756 -4.653891,-4.29415 -0.499153,-0.18074 -1.253827,0.84217 -1.709317,2.31687 -0.21511,0.69644 -0.481359,2.37772 -0.59167,3.73616 -0.314706,3.8756 -1.206968,5.35703 -3.689457,6.12558 -1.083524,0.33545 -1.781812,0.382103 -5.472045,0.36558 -2.49996,-0.0111 -4.949397,-0.12864 -5.988906,-0.28721 z m 9.915796,-3.80755 c 0.401814,-0.11158 0.810269,-0.35293 0.907695,-0.53634 0.09741,-0.18339 0.276041,-1.42254 0.396934,-2.75365 0.258994,-2.85161 0.468725,-3.79685 1.211058,-5.45818 0.775414,-1.73534 1.578369,-2.66611 2.827022,-3.27702 0.92187,-0.45103 1.246045,-0.51128 2.296913,-0.42693 2.299287,0.18457 3.546607,1.1318 8.053779,6.11618 3.651685,4.03831 4.74393,5.00792 6.643045,5.89716 l 1.166353,0.54615 8.428858,0.0584 c 9.351211,0.0648 9.062155,0.10328 9.062155,-1.20657 0,-1.84449 -2.401551,-4.91076 -8.973405,-11.45709 -6.255067,-6.23077 -6.563222,-6.65334 -6.56328,-8.99993 -1.5e-5,-1.3104 0.0812,-1.63906 0.72448,-2.93146 0.423786,-0.85144 2.709515,-4.11119 5.507062,-7.85379 5.026948,-6.72513 6.450887,-8.76538 7.655115,-10.9685 0.970209,-1.77498 1.89737,-4.45 1.633803,-4.71379 -0.126903,-0.12701 -3.421478,-0.21883 -9.141642,-0.25479 -8.463303,-0.0532 -8.960639,-0.037 -9.267401,0.30197 -0.178292,0.197 -0.757752,1.40954 -1.287686,2.69453 -3.013888,7.30797 -6.616237,13.53171 -10.355924,17.89181 -1.754858,2.046 -2.730065,2.89052 -3.802157,3.29264 -1.568724,0.5884 -3.711281,-0.22678 -4.773494,-1.81617 -1.294297,-1.93668 -1.29157,-1.91135 -1.409561,-13.02562 -0.0789,-7.43296 -0.169644,-10.17427 -0.347011,-10.48383 -0.132092,-0.23054 -0.518971,-0.51635 -0.859738,-0.63515 -0.668474,-0.23302 -15.447481,-0.31676 -16.562123,-0.0938 -0.694682,0.13894 -0.792241,0.3802 -0.226367,0.5598 0.649112,0.20602 2.100798,1.76222 2.644188,2.83455 0.992224,1.95807 1.158262,3.4069 1.164755,10.16364 0.005,5.15961 -0.04941,6.40545 -0.335916,7.69685 -1.292933,5.82795 -5.228837,6.8173 -9.318643,2.3424 -3.029322,-3.31456 -7.891156,-11.64071 -10.845667,-18.57375 -0.511657,-1.20065 -1.148301,-2.38789 -1.414772,-2.63831 l -0.484495,-0.4553 -7.512882,-0.0534 c -6.4008564,-0.0455 -7.5288981,-0.0116 -7.621107,0.22866 -0.059526,0.15513 0.6128559,1.85008 1.494182,3.76656 7.918592,17.21933 16.62764,30.62849 23.775291,36.60639 5.273674,4.41061 10.856251,6.85529 17.387856,7.61441 1.996629,0.23204 7.28883,0.2329 8.122727,0.001 z"
     id="path4521"
     inkscape:connector-curvature="0" /></svg>