<?xml version="1.0" encoding="iso-8859-1"?>
<!-- Generator: Adobe Illustrator 22.1.0, SVG Export Plug-In . SVG Version: 6.00 Build 0)  -->
<svg version="1.1" id="Layer_1" xmlns="http://www.w3.org/2000/svg" xmlns:xlink="http://www.w3.org/1999/xlink" x="0px" y="0px"
	 viewBox="0 0 612 792" style="enable-background:new 0 0 612 792;" xml:space="preserve">
<g>
	<g>
		<defs>
			<rect id="SVGID_1_" x="0" y="493" width="512" height="299"/>
		</defs>
		<defs>
			<path id="SVGID_2_" d="M20.445,524.162c0.099,0.823,0.441,2.36,1.549,4.823c30.575,67.99,58.224,117.299,89.65,159.877
				c21.015,28.472,41.926,48.098,65.809,61.762c27.453,15.708,59.154,22.472,96.93,20.697c7.862-0.359,10.217-1.537,10.922-2.207
				c0.539-0.511,1.827-2.522,2.175-10.139c0.601-12.452,2.081-25.634,8.785-37.853c5.175-9.444,11.916-12.854,16.659-14.049
				c4.794-1.209,12.448-1.389,21.684,4.606c6.169,4.006,10.971,8.881,14.854,13.122c3.132,3.429,6.25,6.918,9.265,10.291
				c6.186,6.922,12.584,14.079,19.123,20.741c11.529,11.75,23.449,16.68,37.474,15.512c0.28-0.023,0.561-0.034,0.842-0.034
				c0.003,0,0.005,0,0.007,0l71.19,0.032c0.625-0.075,1.836-0.392,2.818-2.131c1.2-2.127,1.773-6.216-0.566-10.748
				c-4.477-8.647-10.622-16.494-16.042-23.028c-10.352-12.407-21.953-23.394-34.235-35.027c-4.331-4.102-8.809-8.343-13.178-12.609
				c-18.488-18.032-19.789-31.748-4.975-52.417c6.929-9.725,14.237-19.363,21.307-28.684c6.133-8.088,12.476-16.451,18.483-24.763
				l1.381-1.914c11.561-16.001,22.482-31.116,28.133-48.904c1.122-3.549,1.134-5.249,1.082-5.839
				c-0.504-0.318-2.032-1.088-5.745-1.721c-1.466-0.251-3.357-0.272-5.17-0.272l-77.904-0.069c-0.064,0-0.126,0-0.189-0.002
				c-4.586-0.097-6.508,0.779-8.62,6.097c-4.221,10.606-9.214,22.911-15.107,34.806c-11.31,23.034-25.785,49.693-47.281,72.507
				l-0.814,0.866c-4.568,4.879-13.077,13.96-25.941,9.756c-0.117-0.038-0.234-0.078-0.35-0.121
				c-14.129-5.192-18.279-24.13-18.099-32.67l-0.069-89.073c-0.453-3.181-1.192-7.252-2.486-8.973
				c-0.305-0.405-1.196-1.589-5.689-2.597H198.23c-3.258,0-5.605,0.452-7.686,1.536c11.723,5.318,19.165,15.73,21.302,30.143
				c3.032,20.117,3.422,41.445,1.225,67.098c-0.769,8.646-2.322,15.489-4.892,21.566c-3.981,9.428-9.893,12.897-14.153,14.147
				c-4.258,1.248-11.103,1.524-19.538-4.252c-9.208-6.301-15.475-15.144-20.509-22.25c-18.959-26.767-34.87-56.242-48.644-90.111
				c-2.916-7.135-6.767-8.15-10.149-8.2c-24.703-0.412-47.517-0.401-69.765,0.031C22.748,523.569,21.225,523.906,20.445,524.162
				L20.445,524.162z M262.73,792c-36.327,0.001-67.642-7.784-95.408-23.669c-26.427-15.121-49.334-36.523-72.091-67.355
				C62.91,657.182,34.584,606.718,3.388,537.348c-4.364-9.714-4.513-17.889-0.443-24.3c4.063-6.399,11.498-9.736,22.098-9.92
				c22.476-0.436,45.531-0.447,70.459-0.031c13.084,0.191,23.29,7.611,28.719,20.894c13.182,32.415,28.359,60.548,46.401,86.022
				c4.517,6.374,9.188,12.967,15.385,17.208c1.004,0.687,1.729,1.047,2.195,1.235c0.292-0.411,0.71-1.108,1.186-2.235
				c1.721-4.071,2.787-8.964,3.36-15.404c2.055-23.983,1.713-43.792-1.078-62.309c-1.413-9.53-5.974-14.515-14.793-16.189
				c-2.505-0.474-10.133-1.919-12.693-9.159c-2.53-7.154,2.436-13.006,4.305-15.21c6.458-7.56,14.512-14.533,29.739-14.533h80.934
				c0.663,0,1.325,0.064,1.976,0.193c20.3,4.006,23.702,16.864,25.447,29.69c0.061,0.453,0.093,0.91,0.093,1.367l0.069,89.903
				c0,0.097-0.001,0.195-0.004,0.294c-0.112,4.003,2.34,11.644,4.467,12.98c1.122-0.534,3.304-2.867,4.64-4.292l0.872-0.928
				c19.624-20.827,33.163-45.824,43.818-67.527c5.57-11.242,10.376-23.093,14.447-33.319c5.086-12.805,14.417-19.181,27.87-18.957
				l77.806,0.07c2.68,0,5.56,0.042,8.595,0.563c6.213,1.058,15.031,3.368,19.787,11.162c4.754,7.792,2.783,16.668,0.885,22.666
				c-6.646,20.919-19.048,38.086-31.043,54.688l-1.38,1.911c-6.148,8.506-12.562,16.965-18.765,25.145
				c-6.979,9.203-14.195,18.718-20.964,28.218c-4.527,6.316-6.494,10.59-6.207,13.47c0.293,2.93,3.098,6.897,8.828,12.486
				c0.001,0.001,0.002,0.002,0.003,0.003c4.26,4.159,8.683,8.348,12.96,12.399c12.169,11.524,24.751,23.441,35.888,36.788
				c6.134,7.395,13.109,16.33,18.483,26.71c5.152,9.985,5.228,21.248,0.207,30.14c-4.169,7.384-11.27,11.932-19.484,12.478
				c-0.226,0.016-0.451,0.023-0.678,0.023c-0.001,0-0.002,0-0.004,0l-71.205-0.033c-19.817,1.523-37.735-5.744-53.278-21.588
				c-6.872-6.999-13.432-14.338-19.775-21.435c-2.98-3.333-6.06-6.78-9.108-10.117c-3.007-3.283-6.664-7.023-10.911-9.781
				c-2.323-1.508-4.412-2.229-5.59-1.936c-1.108,0.28-2.514,1.803-3.76,4.077c-4.455,8.12-5.739,17.466-6.297,29.003
				c-0.994,21.829-10.114,30.744-32.526,31.765C271.065,791.899,266.862,792,262.73,792L262.73,792z"/>
		</defs>
		<defs>
			<rect id="SVGID_3_" x="0" width="612" height="792"/>
		</defs>
		<clipPath id="SVGID_4_">
			<use xlink:href="#SVGID_1_"  style="overflow:visible;"/>
		</clipPath>
		<clipPath id="SVGID_5_" style="clip-path:url(#SVGID_4_);">
			<use xlink:href="#SVGID_2_"  style="overflow:visible;"/>
		</clipPath>
		<clipPath id="SVGID_6_" style="clip-path:url(#SVGID_5_);">
			<use xlink:href="#SVGID_3_"  style="overflow:visible;"/>
		</clipPath>
		<g style="clip-path:url(#SVGID_6_);">
			<rect x="0" y="488.209" width="521.998" height="308.583"/>
		</g>
	</g>
</g>
</svg>
