<?xml version="1.0" encoding="UTF-8" standalone="no"?>
<!-- Generator: Adobe Illustrator 22.1.0, SVG Export Plug-In . SVG Version: 6.00 Build 0)  -->

<svg
   xmlns:dc="http://purl.org/dc/elements/1.1/"
   xmlns:cc="http://creativecommons.org/ns#"
   xmlns:rdf="http://www.w3.org/1999/02/22-rdf-syntax-ns#"
   xmlns:svg="http://www.w3.org/2000/svg"
   xmlns="http://www.w3.org/2000/svg"
   xmlns:xlink="http://www.w3.org/1999/xlink"
   xmlns:sodipodi="http://sodipodi.sourceforge.net/DTD/sodipodi-0.dtd"
   xmlns:inkscape="http://www.inkscape.org/namespaces/inkscape"
   version="1.1"
   id="Layer_1"
   x="0px"
   y="0px"
   viewBox="0 0 16.270578 30.999998"
   xml:space="preserve"
   sodipodi:docname="social-fb.svg"
   width="16.270578"
   height="30.999998"
   inkscape:version="0.92.1 r15371"><metadata
     id="metadata25"><rdf:RDF><cc:Work
         rdf:about=""><dc:format>image/svg+xml</dc:format><dc:type
           rdf:resource="http://purl.org/dc/dcmitype/StillImage" /><dc:title></dc:title></cc:Work></rdf:RDF></metadata><defs
     id="defs23" /><sodipodi:namedview
     pagecolor="#ffffff"
     bordercolor="#666666"
     borderopacity="1"
     objecttolerance="10"
     gridtolerance="10"
     guidetolerance="10"
     inkscape:pageopacity="0"
     inkscape:pageshadow="2"
     inkscape:window-width="1920"
     inkscape:window-height="1017"
     id="namedview21"
     showgrid="false"
     fit-margin-top="0"
     fit-margin-left="0"
     fit-margin-right="0"
     fit-margin-bottom="0"
     inkscape:zoom="5.2149125"
     inkscape:cx="66.3763"
     inkscape:cy="41.452009"
     inkscape:window-x="-8"
     inkscape:window-y="-8"
     inkscape:window-maximized="1"
     inkscape:current-layer="Layer_1" /><g
     id="g18"
     transform="scale(0.06054687)"><g
       id="g16"><defs
         id="defs3"><rect
           id="SVGID_1_"
           width="269"
           height="512"
           x="0"
           y="0" /></defs><defs
         id="defs6"><path
           id="SVGID_2_"
           d="m 82.214,491.602 h 86.828 V 273.071 c 0,-5.633 4.567,-10.199 10.199,-10.199 h 59.924 l 8.886,-77.133 h -68.807 c -5.632,0 -10.199,-4.566 -10.199,-10.199 v -51.196 c 0,-20.951 13.047,-33.459 34.9,-33.459 H 248.33 V 20.458 h -62.026 c -0.168,0 -0.336,-0.005 -0.504,-0.013 -0.156,-0.008 -1.009,-0.046 -2.442,-0.046 -10.221,0 -45.745,1.996 -73.66,27.677 -29.869,27.482 -26.026,59.672 -24.951,65.847 0.1,0.577 0.15,1.162 0.15,1.747 v 59.867 c 0,5.633 -4.567,10.2 -10.199,10.2 H 20.397 v 76.09 h 51.618 c 5.632,0 10.199,4.566 10.199,10.199 z M 171.312,512 H 79.944 c -9.996,0 -18.128,-8.133 -18.128,-18.128 V 282.225 H 18.128 C 8.132,282.225 0,274.092 0,264.095 v -80.629 c 0,-9.996 8.133,-18.128 18.128,-18.128 h 46.371 v -48.84 C 62.967,106.62 59.484,66.557 95.885,33.064 129.234,2.385 171.269,0 183.357,0 c 1.495,0 2.562,0.033 3.176,0.059 h 64.066 c 9.996,0 18.128,8.132 18.128,18.128 v 74.967 c 0,9.997 -8.133,18.128 -18.128,18.128 h -46.655 c -12.191,0 -14.502,4.59 -14.502,13.061 v 40.996 h 61.157 c 5.161,0 10.093,2.21 13.53,6.064 3.437,3.855 5.068,9.009 4.477,14.14 l -9.409,81.672 c -1.052,9.153 -8.794,16.056 -18.008,16.056 H 189.44 v 210.601 c 0,9.995 -8.133,18.128 -18.128,18.128 z"
           inkscape:connector-curvature="0" /></defs><clipPath
         id="SVGID_3_"><use
           xlink:href="#SVGID_1_"
           style="overflow:visible"
           id="use8"
           x="0"
           y="0"
           width="100%"
           height="100%" /></clipPath><clipPath
         id="SVGID_4_"
         clip-path="url(#SVGID_3_)"><use
           xlink:href="#SVGID_2_"
           style="overflow:visible"
           id="use11"
           x="0"
           y="0"
           width="100%"
           height="100%" /></clipPath><rect
         x="-5"
         y="-5"
         width="278.72699"
         height="522"
         clip-path="url(#SVGID_4_)"
         id="rect14" /></g></g></svg>