<?xml version="1.0" encoding="UTF-8" standalone="no"?>
<!-- Generator: Adobe Illustrator 22.1.0, SVG Export Plug-In . SVG Version: 6.00 Build 0)  -->

<svg
   xmlns:dc="http://purl.org/dc/elements/1.1/"
   xmlns:cc="http://creativecommons.org/ns#"
   xmlns:rdf="http://www.w3.org/1999/02/22-rdf-syntax-ns#"
   xmlns:svg="http://www.w3.org/2000/svg"
   xmlns="http://www.w3.org/2000/svg"
   xmlns:xlink="http://www.w3.org/1999/xlink"
   xmlns:sodipodi="http://sodipodi.sourceforge.net/DTD/sodipodi-0.dtd"
   xmlns:inkscape="http://www.inkscape.org/namespaces/inkscape"
   version="1.1"
   id="Layer_1"
   x="0px"
   y="0px"
   viewBox="0 0 19.136055 31"
   xml:space="preserve"
   sodipodi:docname="social-ok.svg"
   width="19.136055"
   height="31"
   inkscape:version="0.92.1 r15371"><metadata
     id="metadata21"><rdf:RDF><cc:Work
         rdf:about=""><dc:format>image/svg+xml</dc:format><dc:type
           rdf:resource="http://purl.org/dc/dcmitype/StillImage" /><dc:title></dc:title></cc:Work></rdf:RDF></metadata><defs
     id="defs19" /><sodipodi:namedview
     pagecolor="#ffffff"
     bordercolor="#666666"
     borderopacity="1"
     objecttolerance="10"
     gridtolerance="10"
     guidetolerance="10"
     inkscape:pageopacity="0"
     inkscape:pageshadow="2"
     inkscape:window-width="1920"
     inkscape:window-height="1017"
     id="namedview17"
     showgrid="false"
     fit-margin-top="0"
     fit-margin-left="0"
     fit-margin-right="0"
     fit-margin-bottom="0"
     inkscape:zoom="7.3151649"
     inkscape:cx="19.992893"
     inkscape:cy="17.364501"
     inkscape:window-x="-8"
     inkscape:window-y="-8"
     inkscape:window-maximized="1"
     inkscape:current-layer="Layer_1" /><g
     id="g14"
     transform="matrix(0.04359051,0,0,0.04359051,-0.08738999,-0.45770923)"><g
       id="g12"><defs
         id="defs3"><rect
           id="SVGID_1_"
           width="442"
           height="730"
           x="0"
           y="0" /></defs><clipPath
         id="SVGID_2_"><use
           xlink:href="#SVGID_1_"
           style="overflow:visible"
           id="use5"
           x="0"
           y="0"
           width="100%"
           height="100%" /></clipPath><path
         style="fill:none;stroke:#000000;stroke-width:26;stroke-miterlimit:10"
         d="M 187.626,505.906 C 134.339,500.357 86.256,487.255 45.07,455.115 39.965,451.113 34.697,447.246 30.051,442.786 12.042,425.502 10.215,405.727 24.459,385.314 36.66,367.859 57.136,363.183 78.413,373.201 c 4.115,1.96 8.059,4.388 11.814,6.987 76.717,52.616 182.058,54.1 259.09,2.356 7.636,-5.836 15.758,-10.611 25.221,-13.039 18.396,-4.703 35.522,2.041 45.373,18.093 11.291,18.336 11.111,36.25 -2.746,50.476 -21.313,21.816 -46.921,37.626 -75.375,48.66 -26.905,10.396 -56.349,15.629 -85.541,19.137 4.43,4.784 6.474,7.131 9.247,9.874 39.61,39.766 79.391,79.316 118.857,119.19 13.434,13.597 16.244,30.422 8.86,46.232 -8.122,17.248 -26.239,28.624 -44.004,27.401 -11.255,-0.773 -20.044,-6.358 -27.859,-14.226 -29.894,-30.036 -60.32,-59.514 -89.62,-90.107 -8.509,-8.921 -12.624,-7.239 -20.116,0.495 -30.074,30.908 -60.635,61.366 -91.376,91.609 -13.795,13.597 -30.218,16.052 -46.219,8.291 -17.027,-8.219 -27.859,-25.575 -27.013,-42.994 0.558,-11.807 6.366,-20.836 14.488,-28.912 39.187,-39.064 78.256,-78.264 117.371,-117.4 2.602,-2.601 4.997,-5.371 8.761,-9.418 z"
         clip-path="url(#SVGID_2_)"
         id="path8"
         inkscape:connector-curvature="0" /><path
         style="fill:none;stroke:#000000;stroke-width:23;stroke-miterlimit:10"
         d="M 220.716,369.999 C 125.527,369.684 47.444,290.857 48.003,195.613 48.535,99.307 126.654,21.713 222.798,22.001 c 96.351,0.243 173.66,78.962 173.2,176.249 -0.487,95.028 -79.102,172.064 -175.282,171.749 z m 86.537,-174.143 c -0.18,-47.289 -37.879,-84.938 -85.122,-84.974 -47.675,-0.072 -85.69,38.252 -85.338,85.991 0.351,47.082 38.375,84.488 85.753,84.308 47.252,-0.171 84.842,-38.072 84.707,-85.325 z"
         clip-path="url(#SVGID_2_)"
         id="path10"
         inkscape:connector-curvature="0" /></g></g></svg>