<?xml version="1.0" encoding="UTF-8" standalone="no"?>
<!-- Generator: Adobe Illustrator 22.1.0, SVG Export Plug-In . SVG Version: 6.00 Build 0)  -->

<svg
   xmlns:dc="http://purl.org/dc/elements/1.1/"
   xmlns:cc="http://creativecommons.org/ns#"
   xmlns:rdf="http://www.w3.org/1999/02/22-rdf-syntax-ns#"
   xmlns:svg="http://www.w3.org/2000/svg"
   xmlns="http://www.w3.org/2000/svg"
   xmlns:sodipodi="http://sodipodi.sourceforge.net/DTD/sodipodi-0.dtd"
   xmlns:inkscape="http://www.inkscape.org/namespaces/inkscape"
   version="1.1"
   id="Layer_1"
   x="0px"
   y="0px"
   viewBox="0 0 358.48113 682.51019"
   xml:space="preserve"
   sodipodi:docname="social-fb.svg"
   width="358.48114"
   height="682.51019"
   inkscape:version="0.92.1 r15371"><metadata
     id="metadata25"><rdf:RDF><cc:Work
         rdf:about=""><dc:format>image/svg+xml</dc:format><dc:type
           rdf:resource="http://purl.org/dc/dcmitype/StillImage" /><dc:title></dc:title></cc:Work></rdf:RDF></metadata><defs
     id="defs23" /><sodipodi:namedview
     pagecolor="#ffffff"
     bordercolor="#666666"
     borderopacity="1"
     objecttolerance="10"
     gridtolerance="10"
     guidetolerance="10"
     inkscape:pageopacity="0"
     inkscape:pageshadow="2"
     inkscape:window-width="1920"
     inkscape:window-height="1017"
     id="namedview21"
     showgrid="false"
     fit-margin-top="0"
     fit-margin-left="0"
     fit-margin-right="0"
     fit-margin-bottom="0"
     inkscape:zoom="0.4609375"
     inkscape:cx="767.18521"
     inkscape:cy="127.34896"
     inkscape:window-x="-8"
     inkscape:window-y="-8"
     inkscape:window-maximized="1"
     inkscape:current-layer="Layer_1" /><path
     style="fill:#040404;stroke-width:1.33333337"
     d="m 96.637927,680.66446 c -4.96895,-2.21793 -10.70807,-8.23765 -12.58184,-13.19699 -0.97004,-2.56744 -1.41816,-49.22745 -1.41816,-147.66666 v -143.9132 h -32.04282 c -34.87134,0 -37.62847,-0.46794 -44.2056904,-7.50246 -1.97001,-2.10698 -4.22001,-5.51993 -5,-7.58434 C 0.46374664,358.35082 -0.01856336,336.58837 5.4663926e-4,298.13414 0.03394664,230.95249 -0.04085336,231.46521 10.765337,224.30913 l 5.67009,-3.75486 34.50577,-0.4158 34.50577,-0.41581 -0.21365,-48.91752 c -0.21149,-48.42281 -0.17943,-49.04841 3.1704,-61.85862 C 100.58461,62.365133 136.59045,26.114823 187.3046,9.374163 c 25.54435,-8.43214997 26.68028,-8.54529997 91.61303,-9.12582997 57.10752,-0.51056 59.86338,-0.42222 65.56977,2.10198997 3.95368,1.7489 7.22229,4.5467 9.72031,8.32017 l 3.76356,5.68523 0.38152,55.43261 c 0.42501,61.753567 0.27934,62.982737 -8.36295,70.570777 -6.74321,5.92062 -14.08439,6.86183 -53.52009,6.86183 h -35.37028 l -3.89743,3.89744 -3.89744,3.89743 v 31.4359 31.4359 l 42.33333,0.10146 c 46.31031,0.11094 48.15852,0.36904 55.7418,7.78367 8.18298,8.00097 8.20294,8.99911 1.38708,69.36219 -7.51182,66.52698 -7.57736,66.86785 -14.11142,73.40192 -7.1523,7.15226 -12.77259,8.01742 -52.08308,8.01742 H 253.3046 l -0.008,140.33334 c -0.005,96.95421 -0.45556,141.94737 -1.45715,145.5548 -2.02726,7.30161 -6.1161,12.33766 -12.54326,15.449 -5.27775,2.55492 -8.1998,2.66074 -72.07978,2.61068 -52.65498,-0.0413 -67.414993,-0.42558 -70.578483,-1.83763 z m 128.982913,-174.74003 0.35043,-148.62984 3.03569,-3.03682 c 3.01667,-3.01779 3.30452,-3.03915 45.92575,-3.40702 23.58953,-0.20361 43.0671,-0.54725 43.2835,-0.76365 0.21642,-0.2164 2.68842,-20.14981 5.49335,-44.29648 2.80495,-24.14665 5.48304,-47.05301 5.95132,-50.90301 l 0.85141,-7 H 282.59615 234.68 l -4.35436,-3.8913 -4.35437,-3.89128 v -43.10872 c 0,-47.41966 0.3701,-50.18709 8.0616,-60.27898 2.70664,-3.55135 7.39806,-7.14782 13.25728,-10.16306 l 9.06824,-4.66666 37.13977,-0.41059 37.13977,-0.41058 V 74.407983 27.749533 l -54.33333,0.40237 c -50.98444,0.37757 -55.06656,0.5855 -66.22941,3.37347 -41.17144,10.28275 -70.17327,31.52246 -86.44494,63.30862 -10.73566,20.971767 -10.67262,20.449847 -10.37779,85.916777 l 0.25909,57.52982 -3.99269,4.47018 -3.99268,4.47017 -38.777463,0.37272 -38.77745,0.37271 v 50.62729 50.62728 h 36.76923 36.769233 l 3.89743,3.89744 3.89744,3.89743 v 148.76924 148.76922 h 57.98291 57.98292 z"
     id="path4507"
     inkscape:connector-curvature="0" /></svg>