<?xml version="1.0" encoding="utf-8"?>
<!-- Generator: Adobe Illustrator 22.1.0, SVG Export Plug-In . SVG Version: 6.00 Build 0)  -->
<svg version="1.2" baseProfile="tiny" id="Layer_1" xmlns="http://www.w3.org/2000/svg" xmlns:xlink="http://www.w3.org/1999/xlink"
	 x="0px" y="0px" viewBox="0 0 35.391 35.391" xml:space="preserve">
<g>
	<path d="M17.695,35.391C7.938,35.391,0,27.454,0,17.696S7.938,0,17.695,0c9.758,0,17.696,7.938,17.696,17.696
		S27.453,35.391,17.695,35.391L17.695,35.391z M17.695,1.2C8.602,1.2,1.199,8.602,1.199,17.696c0,9.093,7.403,16.496,16.496,16.496
		c9.094,0,16.496-7.403,16.496-16.496C34.191,8.602,26.789,1.2,17.695,1.2L17.695,1.2z M17.695,1.2"/>
	<line x1="10.242" y1="17.696" x2="25.145" y2="17.696"/>
	<path d="M25.145,18.293H10.242c-0.328,0-0.597-0.265-0.597-0.597c0-0.332,0.269-0.602,0.597-0.602h14.903
		c0.332,0,0.601,0.27,0.601,0.602C25.746,18.028,25.477,18.293,25.145,18.293L25.145,18.293z M25.145,18.293"/>
	<path d="M17.695,25.746c-0.332,0-0.601-0.269-0.601-0.601V10.243c0-0.329,0.269-0.598,0.601-0.598c0.332,0,0.602,0.269,0.602,0.598
		v14.902C18.297,25.477,18.027,25.746,17.695,25.746L17.695,25.746z M17.695,25.746"/>
</g>
</svg>
